# This file uses centimeters as units for non-parametric coordinates.

mtllib TrainLamp.mtl
g default
v 2.847086 7.497458 -0.264151
v 2.429000 8.804805 -0.248639
v 1.777815 9.842322 -0.236329
v 1.005892 10.822930 -0.236719
v 0.035567 11.080395 -0.234128
v -0.933857 10.822930 -0.236719
v -1.795834 10.084920 -0.244242
v -2.463714 8.959470 -0.256032
v -2.881728 7.573186 -0.271179
v -3.023219 6.059843 -0.288619
v -2.878373 4.549428 -0.306851
v -2.422504 3.205747 -0.321377
v -1.742903 2.142812 -0.333438
v -0.861883 1.588054 -0.334265
v 0.047694 1.358523 -0.336989
v 0.957272 1.588054 -0.334265
v 1.777814 2.254181 -0.326362
v 2.428999 3.291698 -0.314052
v 2.847086 4.599045 -0.298540
v 2.991148 6.048251 -0.281345
v 2.918522 7.538327 0.264257
v 2.505648 8.904113 0.283001
v 1.844428 10.010706 0.298866
v 0.994583 10.743316 0.310259
v 0.038255 10.998024 0.314200
v -0.917116 10.743316 0.310259
v -1.765880 10.014421 0.299218
v -2.422504 8.904113 0.283001
v -2.832727 7.538326 0.264257
v -2.971426 6.048829 0.245580
v -2.827394 4.563085 0.228352
v -2.377714 3.242794 0.209922
v -1.709238 2.198566 0.196460
v -0.876669 1.524941 0.188316
v 0.045271 1.291681 0.185595
v 0.967260 1.524941 0.188316
v 1.799671 2.198566 0.196460
v 2.467027 3.242794 0.209922
v 2.913821 4.563085 0.228352
v 3.058267 6.048829 0.245580
v 0.047694 6.048251 -0.281345
v 2.683500 7.409881 0.256533
v 2.292919 8.646164 0.271746
v 1.681272 9.632714 0.284115
v 0.906578 10.269768 0.292224
v 0.045120 10.489682 0.295018
v -0.816145 10.269768 0.292224
v -1.590264 9.632714 0.284115
v -2.201214 8.646164 0.271746
v -2.591229 7.409880 0.256532
v -2.725052 6.044373 0.240112
v -2.613845 4.670508 0.226764
v -2.203217 3.441924 0.210279
v -1.581237 2.474837 0.196357
v -0.806820 1.857584 0.182977
v 0.046904 1.644176 0.184317
v 0.900456 1.857584 0.182977
v 1.674020 2.474837 0.196357
v 2.294625 3.441924 0.210279
v 2.703259 4.670508 0.226764
v 2.817552 6.044373 0.240112
v 2.512027 7.317849 0.096509
v 2.143982 8.468721 0.110164
v 0.047694 6.042097 0.080250
v 1.570736 9.382057 0.121000
v 0.848404 9.968455 0.127958
v 0.047694 10.170515 0.130355
v -0.753016 9.968455 0.127958
v -1.475348 9.382057 0.121000
v -2.048591 8.468719 0.110164
v -2.416639 7.317847 0.096509
v -2.543457 6.042097 0.081372
v -2.459846 4.750012 0.069010
v -2.085777 3.580324 0.055131
v -1.503152 2.652029 0.041244
v -0.769036 2.055904 0.021900
v 0.044805 1.850530 0.024204
v 0.858647 2.055904 0.021900
v 1.592775 2.652029 0.041244
v 2.175400 3.580324 0.055131
v 2.549470 4.750012 0.069010
v 2.638846 6.042097 0.081372
v -2.543457 5.727263 0.081372
v -2.416639 4.451512 0.066235
v 0.047694 5.727263 0.045928
v -2.048591 3.300642 0.052580
v -1.475347 2.387306 0.041743
v -0.753016 1.800908 0.034786
v 0.047694 1.598849 0.032388
v 0.848404 1.800908 0.034786
v 1.570735 2.387306 0.041743
v 2.143980 3.300642 0.052580
v 2.512027 4.451512 0.066235
v 2.638846 5.727263 0.081372
v -0.105889 6.042097 0.080250
v 0.047694 6.042097 0.080250
v -0.105889 5.727263 0.045928
v 0.047694 5.727263 0.045928
v 0.201277 6.042097 0.080250
v 0.201277 5.727263 0.045928
v -0.126285 5.367432 0.622647
v 0.036765 5.367361 0.624109
v -0.135402 5.037115 0.501228
v 0.032741 5.037115 0.502609
v 0.199881 5.367432 0.622647
v 0.200884 5.037115 0.501228
v -0.200607 4.419201 0.734248
v 0.015115 4.419173 0.738258
v -0.228226 4.002097 0.550007
v 0.008069 4.002094 0.553409
v 0.230907 4.419201 0.734248
v 0.244363 4.002097 0.550007
v -0.263147 3.048316 1.117916
v -0.000000 3.048318 1.120397
v -0.253249 2.544985 0.990359
v 0.001532 2.528582 0.996556
v 0.263146 3.048316 1.117916
v 0.258567 2.544985 0.990359
v -0.263147 2.255894 2.008408
v -0.000000 2.255894 2.008998
v -0.258440 1.731270 2.124141
v 0.000277 1.731270 2.124141
v 0.263146 2.255894 2.008408
v 0.258993 1.731270 2.124141
v -0.256333 2.258183 2.991583
v -0.000000 2.258183 2.992211
v -0.252604 1.741612 3.046451
v -0.000000 1.741612 3.046451
v 0.256331 2.258183 2.991583
v 0.252603 1.741612 3.046451
v -0.260700 2.256727 3.758589
v -0.000000 2.256726 3.759491
v -0.256649 1.731984 3.765666
v -0.000000 1.731985 3.765573
v 0.260699 2.256727 3.758589
v 0.256648 1.731984 3.765666
v -0.237219 3.485151 4.577499
v -0.000001 3.484832 4.582679
v -0.234742 3.473230 4.739763
v -0.000001 3.472823 4.744512
v 0.237218 3.485151 4.577499
v 0.234741 3.473230 4.739763
v -0.220463 3.835910 4.618925
v -0.000001 3.835345 4.625187
v -0.218219 3.820734 4.767118
v -0.000001 3.820064 4.772920
v 0.220462 3.835910 4.618925
v 0.218218 3.820734 4.767118
v -0.213520 3.974570 4.628634
v -0.000001 3.973942 4.635263
v -0.215124 3.893880 4.747702
v -0.000001 3.893178 4.753893
v 0.213519 3.974570 4.628634
v 0.215122 3.893880 4.747702
v -0.211846 4.087856 4.326119
v -0.000001 4.087856 4.333492
v -0.209777 4.131863 4.329622
v -0.000001 4.131513 4.336850
v 0.211845 4.087856 4.326119
v 0.209775 4.131863 4.329622
v -0.211878 4.088120 3.718967
v -0.000001 4.088119 3.726339
v -0.209957 4.133402 3.729190
v -0.000001 4.133402 3.736649
v 0.209956 4.133402 3.729190
v 0.211876 4.088120 3.718967
v -0.119966 4.136314 4.194268
v -0.000001 4.136855 4.196968
v -0.000001 4.136855 3.853804
v -0.119966 4.136315 3.851210
v 0.119965 4.136314 4.194268
v 0.119965 4.136315 3.851210
v -0.116610 4.275024 4.204268
v -0.000001 4.275455 4.206951
v -0.000001 4.277598 3.874178
v -0.116733 4.277053 3.871527
v 0.116609 4.275024 4.204268
v 0.116732 4.277053 3.871527
v -0.464084 4.589460 4.528254
v -0.000000 4.590774 4.529886
v -0.000000 4.602409 3.610447
v -0.466274 4.600054 3.610148
v 0.464083 4.589460 4.528254
v 0.466273 4.600054 3.610148
v -0.526812 4.650433 4.590862
v -0.000000 4.651319 4.591403
v -0.000000 4.667325 3.546207
v -0.529875 4.663842 3.547124
v 0.526810 4.650433 4.590862
v 0.529873 4.663842 3.547124
v -0.513733 4.584685 4.578375
v -0.000000 4.585899 4.579132
v -0.000000 4.653988 4.646274
v -0.583266 4.653109 4.645290
v -0.517337 4.600400 3.560424
v -0.000000 4.604272 3.559855
v -0.587761 4.670906 3.486612
v -0.000000 4.675962 3.485326
v 0.513732 4.584685 4.578375
v 0.583265 4.653109 4.645290
v 0.517335 4.600400 3.560424
v 0.587760 4.670906 3.486612
v -0.068957 5.962784 0.159464
v 0.047323 5.962737 0.159401
v -0.081809 5.456721 0.549027
v 0.039576 5.456800 0.548499
v 0.163518 5.962784 0.159464
v 0.160870 5.456721 0.549027
v -0.193247 8.398129 0.130302
v 0.001026 8.398129 0.130302
v -0.143990 8.285732 0.238231
v 0.002035 8.285732 0.238231
v 0.195298 8.398129 0.130302
v 0.148059 8.285732 0.238231
v -0.184538 9.334626 0.764861
v 0.004539 9.353266 0.769394
v -0.141023 9.307739 0.880347
v 0.003102 9.319363 0.883574
v 0.195894 9.334626 0.764861
v 0.148670 9.307739 0.880347
v -0.192460 9.403876 1.428965
v 0.000951 9.411981 1.432378
v -0.147365 9.116511 1.548924
v -0.000001 9.116511 1.548924
v 0.195352 9.403876 1.428965
v 0.147364 9.116511 1.548924
v -0.195168 9.174733 1.617215
v -0.000001 9.174733 1.617215
v -0.147365 9.073337 1.727206
v -0.000001 9.073337 1.727206
v 0.195166 9.174733 1.617215
v 0.147364 9.073337 1.727206
v -0.147365 8.239287 1.548920
v -0.000001 8.239287 1.548920
v -0.000001 8.239287 1.727202
v -0.147365 8.239287 1.727202
v 0.147364 8.239287 1.548920
v 0.147364 8.239287 1.727202
v -0.117995 7.919000 1.166518
v 0.001870 7.919000 1.166518
v 0.000906 7.985594 1.465050
v -0.145862 7.985594 1.465050
v 0.121734 7.919000 1.166518
v 0.147673 7.985594 1.465050
v -0.138192 7.819146 0.998608
v 0.005531 7.819146 0.998608
v 0.003996 7.833591 1.181455
v -0.140738 7.833591 1.181455
v 0.149253 7.819146 0.998608
v 0.148729 7.833591 1.181455
v -0.082048 8.153175 0.860270
v 0.001367 8.153175 0.860270
v 0.003886 8.060461 0.685167
v -0.140919 8.060461 0.685167
v 0.084782 8.153175 0.860270
v 0.148692 8.060461 0.685167
v -0.052757 8.492572 0.937763
v 0.000384 8.492572 0.937763
v 0.000724 8.369390 0.696503
v -0.146164 8.369390 0.696503
v 0.053526 8.492572 0.937763
v 0.147611 8.369390 0.696503
v -0.076574 8.634635 1.131962
v -0.000001 8.634635 1.131962
v -0.000001 8.553378 0.917901
v -0.147365 8.553378 0.917901
v 0.076572 8.634635 1.131962
v 0.147364 8.553378 0.917901
v -0.263147 2.255907 4.223276
v -0.000000 2.255907 4.223276
v -0.260666 1.722400 4.207339
v -0.000000 1.722400 4.207339
v 0.263146 2.255907 4.223276
v 0.260665 1.722400 4.207339
v -0.263147 1.640061 4.627502
v -0.000000 1.640061 4.627502
v -0.259038 1.120052 4.604940
v -0.000000 1.120052 4.604940
v 0.263146 1.640061 4.627502
v 0.259037 1.120052 4.604940
v -0.257157 1.031821 4.734076
v -0.000000 1.031821 4.734076
v -0.244787 0.593159 4.659434
v -0.000001 0.593159 4.659434
v 0.257155 1.031821 4.734076
v 0.244786 0.593159 4.659434
v -0.243900 0.673163 4.033483
v -0.000001 0.673163 4.033483
v -0.000001 0.239298 4.097007
v -0.226848 0.239298 4.097007
v 0.243898 0.673163 4.033483
v 0.226847 0.239298 4.097007
v -0.230760 0.763188 3.361337
v -0.000001 0.763188 3.361337
v -0.000001 0.317143 3.473678
v -0.218459 0.317143 3.473678
v 0.230759 0.763188 3.361337
v 0.218457 0.317143 3.473678
v -0.242009 1.135492 2.809602
v -0.000001 1.135492 2.809602
v -0.000001 0.696836 3.052389
v -0.221955 0.696836 3.052389
v 0.242008 1.135492 2.809602
v 0.221954 0.696836 3.052389
v -0.033023 1.434593 2.408630
v -0.000001 1.434593 2.408630
v -0.000001 1.366704 2.456922
v -0.030848 1.366704 2.456922
v 0.033021 1.434593 2.408630
v 0.030846 1.366704 2.456922
v -1.122226 5.461856 5.179528
v 0.000000 5.461856 5.179528
v 0.000000 5.461854 2.941796
v -1.122226 5.461854 2.957293
v 1.122224 5.461856 5.179528
v 1.122224 5.461854 2.957293
v -1.726341 7.648938 5.777138
v 0.000001 7.648938 5.777138
v 0.000001 7.648935 2.361638
v -1.726341 7.648935 2.361638
v 1.726340 7.648938 5.777138
v 1.726340 7.648935 2.361638
v -2.021307 8.492569 6.068926
v 0.000001 8.492569 6.068926
v 0.000001 8.492565 2.069849
v -1.992220 8.457223 2.041695
v 2.021304 8.492569 6.068926
v 1.998017 8.457223 2.041695
v -2.142268 8.765726 6.188585
v 0.000001 8.765726 6.188585
v 0.000001 8.765723 1.950189
v -2.070573 8.674784 1.887966
v 2.142267 8.765726 6.188585
v 2.084137 8.674784 1.887966
v -2.142268 8.484635 6.188588
v 0.000001 8.484635 6.188588
v -2.087738 8.421943 1.902864
v 0.000001 8.484631 1.950189
v 2.142267 8.484635 6.188588
v 2.098055 8.421943 1.902864
v -1.805564 8.765726 5.855506
v 0.000001 8.765726 5.855506
v 0.000001 8.765724 2.283268
v -1.798516 8.755301 2.274980
v 1.805562 8.765726 5.855506
v 1.800069 8.755301 2.274980
v -1.805564 8.560253 5.855506
v 0.000001 8.560253 5.855506
v 0.000001 8.560251 2.283268
v -1.801357 8.554456 2.278321
v 1.805562 8.560253 5.855506
v 1.802284 8.554456 2.278321
v -0.211846 3.960745 3.883412
v -0.000001 3.960745 3.890785
v -0.211878 3.961009 3.276260
v -0.000001 3.961007 3.283633
v 0.211845 3.960745 3.883412
v 0.211876 3.961009 3.276260
v -0.051588 3.533052 3.656550
v -0.000001 3.533052 3.658346
v -0.051596 3.533116 3.508699
v -0.000001 3.533116 3.510495
v 0.051587 3.533052 3.656550
v 0.051595 3.533116 3.508699
v -0.006993 3.271501 3.896701
v -0.000001 3.271500 3.896941
v -0.006994 3.271507 3.876662
v -0.000001 3.271510 3.876902
v 0.006991 3.271501 3.896701
v 0.006993 3.271507 3.876662
vt 0.648603 0.107966
vt 0.626409 0.064408
vt 0.591842 0.029841
vt 0.548284 0.007647
vt 0.500000 -0.000000
vt 0.451716 0.007647
vt 0.408159 0.029841
vt 0.373591 0.064409
vt 0.351397 0.107966
vt 0.343750 0.156250
vt 0.351397 0.204534
vt 0.373591 0.248091
vt 0.408159 0.282659
vt 0.451716 0.304853
vt 0.500000 0.312500
vt 0.548284 0.304853
vt 0.591841 0.282659
vt 0.626409 0.248091
vt 0.648603 0.204534
vt 0.656250 0.156250
vt 0.375000 0.312500
vt 0.387500 0.312500
vt 0.400000 0.312500
vt 0.412500 0.312500
vt 0.425000 0.312500
vt 0.437500 0.312500
vt 0.450000 0.312500
vt 0.462500 0.312500
vt 0.475000 0.312500
vt 0.487500 0.312500
vt 0.500000 0.312500
vt 0.512500 0.312500
vt 0.525000 0.312500
vt 0.537500 0.312500
vt 0.550000 0.312500
vt 0.562500 0.312500
vt 0.575000 0.312500
vt 0.587500 0.312500
vt 0.600000 0.312500
vt 0.612500 0.312500
vt 0.625000 0.312500
vt 0.375000 0.687500
vt 0.387500 0.687500
vt 0.400000 0.687500
vt 0.412500 0.687500
vt 0.425000 0.687500
vt 0.437500 0.687500
vt 0.450000 0.687500
vt 0.462500 0.687500
vt 0.475000 0.687500
vt 0.487500 0.687500
vt 0.500000 0.687500
vt 0.512500 0.687500
vt 0.525000 0.687500
vt 0.537500 0.687500
vt 0.550000 0.687500
vt 0.562500 0.687500
vt 0.575000 0.687500
vt 0.587500 0.687500
vt 0.600000 0.687500
vt 0.612500 0.687500
vt 0.625000 0.687500
vt 0.648603 0.795466
vt 0.626409 0.751908
vt 0.591842 0.717341
vt 0.548284 0.695147
vt 0.500000 0.687500
vt 0.451716 0.695147
vt 0.408159 0.717341
vt 0.373591 0.751909
vt 0.351397 0.795466
vt 0.343750 0.843750
vt 0.351397 0.892034
vt 0.373591 0.935591
vt 0.408159 0.970159
vt 0.451716 0.992353
vt 0.500000 1.000000
vt 0.548284 0.992353
vt 0.591841 0.970159
vt 0.626409 0.935591
vt 0.648603 0.892034
vt 0.656250 0.843750
vt 0.500000 0.156250
vt 0.500000 0.843750
vt 0.648603 0.892034
vt 0.626409 0.935591
vt 0.591841 0.970159
vt 0.548284 0.992353
vt 0.500000 1.000000
vt 0.451716 0.992353
vt 0.408159 0.970159
vt 0.373591 0.935591
vt 0.351397 0.892034
vt 0.343750 0.843750
vt 0.351397 0.795466
vt 0.373591 0.751909
vt 0.408159 0.717341
vt 0.451716 0.695147
vt 0.500000 0.687500
vt 0.548284 0.695147
vt 0.591842 0.717341
vt 0.626409 0.751908
vt 0.648603 0.795466
vt 0.656250 0.843750
vt 0.648603 0.892034
vt 0.626409 0.935591
vt 0.591841 0.970159
vt 0.548284 0.992353
vt 0.500000 1.000000
vt 0.451716 0.992353
vt 0.408159 0.970159
vt 0.373591 0.935591
vt 0.351397 0.892034
vt 0.343750 0.843750
vt 0.351397 0.795466
vt 0.373591 0.751909
vt 0.408159 0.717341
vt 0.451716 0.695147
vt 0.500000 0.687500
vt 0.548284 0.695147
vt 0.591842 0.717341
vt 0.626409 0.751908
vt 0.648603 0.795466
vt 0.656250 0.843750
vt 0.343750 0.843750
vt 0.351397 0.795466
vt 0.500000 0.843750
vt 0.373591 0.751909
vt 0.408159 0.717341
vt 0.451716 0.695147
vt 0.500000 0.687500
vt 0.548284 0.695147
vt 0.591842 0.717341
vt 0.626409 0.751908
vt 0.648603 0.795466
vt 0.656250 0.843750
vt 0.500000 0.843750
vt 0.343750 0.843750
vt 0.343750 0.843750
vt 0.500000 0.843750
vt 0.656250 0.843750
vt 0.656250 0.843750
vt 0.500000 0.843750
vt 0.343750 0.843750
vt 0.343750 0.843750
vt 0.500000 0.843750
vt 0.656250 0.843750
vt 0.656250 0.843750
vt 0.500000 0.843750
vt 0.343750 0.843750
vt 0.343750 0.843750
vt 0.500000 0.843750
vt 0.656250 0.843750
vt 0.656250 0.843750
vt 0.500000 0.843750
vt 0.343750 0.843750
vt 0.343750 0.843750
vt 0.500000 0.843750
vt 0.656250 0.843750
vt 0.656250 0.843750
vt 0.500000 0.843750
vt 0.343750 0.843750
vt 0.343750 0.843750
vt 0.500000 0.843750
vt 0.656250 0.843750
vt 0.656250 0.843750
vt 0.500000 0.843750
vt 0.343750 0.843750
vt 0.343750 0.843750
vt 0.500000 0.843750
vt 0.656250 0.843750
vt 0.656250 0.843750
vt 0.500000 0.843750
vt 0.343750 0.843750
vt 0.343750 0.843750
vt 0.500000 0.843750
vt 0.656250 0.843750
vt 0.656250 0.843750
vt 0.500000 0.843750
vt 0.343750 0.843750
vt 0.343750 0.843750
vt 0.500000 0.843750
vt 0.656250 0.843750
vt 0.656250 0.843750
vt 0.500000 0.843750
vt 0.343750 0.843750
vt 0.343750 0.843750
vt 0.500000 0.843750
vt 0.656250 0.843750
vt 0.656250 0.843750
vt 0.500000 0.843750
vt 0.343750 0.843750
vt 0.343750 0.843750
vt 0.500000 0.843750
vt 0.656250 0.843750
vt 0.656250 0.843750
vt 0.500000 0.843750
vt 0.343750 0.843750
vt 0.343750 0.843750
vt 0.500000 0.843750
vt 0.656250 0.843750
vt 0.656250 0.843750
vt 0.500000 0.843750
vt 0.343750 0.843750
vt 0.343750 0.843750
vt 0.500000 0.843750
vt 0.656250 0.843750
vt 0.656250 0.843750
vt 0.343750 0.843750
vt 0.500000 0.843750
vt 0.500000 0.843750
vt 0.343750 0.843750
vt 0.656250 0.843750
vt 0.656250 0.843750
vt 0.343750 0.843750
vt 0.500000 0.843750
vt 0.500000 0.843750
vt 0.343750 0.843750
vt 0.656250 0.843750
vt 0.656250 0.843750
vt 0.343750 0.843750
vt 0.500000 0.843750
vt 0.500000 0.843750
vt 0.343750 0.843750
vt 0.656250 0.843750
vt 0.656250 0.843750
vt 0.343750 0.843750
vt 0.500000 0.843750
vt 0.500000 0.843750
vt 0.343750 0.843750
vt 0.656250 0.843750
vt 0.656250 0.843750
vt 0.343750 0.843750
vt 0.500000 0.843750
vt 0.500000 0.843750
vt 0.343750 0.843750
vt 0.500000 0.843750
vt 0.343750 0.843750
vt 0.343750 0.843750
vt 0.500000 0.843750
vt 0.656250 0.843750
vt 0.656250 0.843750
vt 0.656250 0.843750
vt 0.656250 0.843750
vt 0.500000 0.843750
vt 0.343750 0.843750
vt 0.343750 0.843750
vt 0.500000 0.843750
vt 0.656250 0.843750
vt 0.656250 0.843750
vt 0.500000 0.843750
vt 0.343750 0.843750
vt 0.343750 0.843750
vt 0.500000 0.843750
vt 0.656250 0.843750
vt 0.656250 0.843750
vt 0.500000 0.843750
vt 0.343750 0.843750
vt 0.343750 0.843750
vt 0.500000 0.843750
vt 0.656250 0.843750
vt 0.656250 0.843750
vt 0.500000 0.843750
vt 0.343750 0.843750
vt 0.343750 0.843750
vt 0.500000 0.843750
vt 0.656250 0.843750
vt 0.656250 0.843750
vt 0.500000 0.843750
vt 0.343750 0.843750
vt 0.343750 0.843750
vt 0.500000 0.843750
vt 0.656250 0.843750
vt 0.656250 0.843750
vt 0.343750 0.843750
vt 0.500000 0.843750
vt 0.500000 0.843750
vt 0.343750 0.843750
vt 0.656250 0.843750
vt 0.656250 0.843750
vt 0.343750 0.843750
vt 0.500000 0.843750
vt 0.500000 0.843750
vt 0.343750 0.843750
vt 0.656250 0.843750
vt 0.656250 0.843750
vt 0.343750 0.843750
vt 0.500000 0.843750
vt 0.500000 0.843750
vt 0.343750 0.843750
vt 0.656250 0.843750
vt 0.656250 0.843750
vt 0.343750 0.843750
vt 0.500000 0.843750
vt 0.500000 0.843750
vt 0.343750 0.843750
vt 0.656250 0.843750
vt 0.656250 0.843750
vt 0.343750 0.843750
vt 0.500000 0.843750
vt 0.500000 0.843750
vt 0.343750 0.843750
vt 0.656250 0.843750
vt 0.656250 0.843750
vt 0.343750 0.843750
vt 0.500000 0.843750
vt 0.500000 0.843750
vt 0.343750 0.843750
vt 0.656250 0.843750
vt 0.656250 0.843750
vt 0.500000 0.843750
vt 0.343750 0.843750
vt 0.343750 0.843750
vt 0.500000 0.843750
vt 0.656250 0.843750
vt 0.656250 0.843750
vt 0.500000 0.843750
vt 0.343750 0.843750
vt 0.343750 0.843750
vt 0.500000 0.843750
vt 0.656250 0.843750
vt 0.656250 0.843750
vt 0.500000 0.843750
vt 0.343750 0.843750
vt 0.343750 0.843750
vt 0.500000 0.843750
vt 0.656250 0.843750
vt 0.656250 0.843750
vt 0.343750 0.843750
vt 0.500000 0.843750
vt 0.500000 0.843750
vt 0.343750 0.843750
vt 0.656250 0.843750
vt 0.656250 0.843750
vt 0.343750 0.843750
vt 0.500000 0.843750
vt 0.500000 0.843750
vt 0.343750 0.843750
vt 0.656250 0.843750
vt 0.656250 0.843750
vt 0.343750 0.843750
vt 0.500000 0.843750
vt 0.500000 0.843750
vt 0.343750 0.843750
vt 0.656250 0.843750
vt 0.656250 0.843750
vt 0.343750 0.843750
vt 0.500000 0.843750
vt 0.500000 0.843750
vt 0.343750 0.843750
vt 0.656250 0.843750
vt 0.656250 0.843750
vt 0.343750 0.843750
vt 0.500000 0.843750
vt 0.500000 0.843750
vt 0.343750 0.843750
vt 0.656250 0.843750
vt 0.656250 0.843750
vt 0.343750 0.843750
vt 0.500000 0.843750
vt 0.500000 0.843750
vt 0.343750 0.843750
vt 0.656250 0.843750
vt 0.656250 0.843750
vt 0.343750 0.843750
vt 0.500000 0.843750
vt 0.500000 0.843750
vt 0.343750 0.843750
vt 0.656250 0.843750
vt 0.656250 0.843750
vt 0.343750 0.843750
vt 0.500000 0.843750
vt 0.500000 0.843750
vt 0.343750 0.843750
vt 0.656250 0.843750
vt 0.656250 0.843750
vt 0.343750 0.843750
vt 0.500000 0.843750
vt 0.500000 0.843750
vt 0.343750 0.843750
vt 0.656250 0.843750
vt 0.656250 0.843750
vt 0.343750 0.843750
vt 0.500000 0.843750
vt 0.500000 0.843750
vt 0.343750 0.843750
vt 0.656250 0.843750
vt 0.656250 0.843750
vt 0.343750 0.843750
vt 0.500000 0.843750
vt 0.500000 0.843750
vt 0.343750 0.843750
vt 0.656250 0.843750
vt 0.656250 0.843750
vt 0.500000 0.843750
vt 0.343750 0.843750
vt 0.343750 0.843750
vt 0.500000 0.843750
vt 0.656250 0.843750
vt 0.656250 0.843750
vt 0.500000 0.843750
vt 0.343750 0.843750
vt 0.343750 0.843750
vt 0.500000 0.843750
vt 0.656250 0.843750
vt 0.656250 0.843750
vt 0.500000 0.843750
vt 0.343750 0.843750
vt 0.343750 0.843750
vt 0.500000 0.843750
vt 0.656250 0.843750
vt 0.656250 0.843750
vn 0.969022 0.194503 -0.152198
vn 0.893239 0.400293 -0.204670
vn 0.891992 0.402676 -0.205431
vn 0.968683 0.195974 -0.152474
vn 0.780798 0.602037 -0.167050
vn 0.781722 0.600474 -0.168347
vn 0.518055 0.855037 0.023040
vn 0.526585 0.849917 0.018688
vn -0.000071 0.988746 0.149601
vn 0.000073 0.988747 0.149600
vn -0.472375 0.869944 0.141631
vn -0.471109 0.870622 0.141681
vn -0.766663 0.629912 0.124250
vn -0.765622 0.631161 0.124333
vn -0.912345 0.394350 0.110069
vn -0.911859 0.395456 0.110125
vn -0.976971 0.187910 0.101080
vn -0.976856 0.188499 0.101101
vn -0.995300 -0.002459 0.096808
vn -0.995300 -0.002374 0.096809
vn -0.973631 -0.205906 0.098208
vn -0.973729 -0.205448 0.098199
vn -0.899283 -0.424637 0.104759
vn -0.899599 -0.423973 0.104731
vn -0.738498 -0.671204 0.064079
vn -0.735868 -0.674189 0.062982
vn -0.434180 -0.899105 -0.055665
vn -0.430725 -0.900683 -0.056984
vn 0.000064 -0.991990 -0.126318
vn -0.000064 -0.991990 -0.126319
vn 0.456952 -0.881850 -0.116340
vn 0.456967 -0.881842 -0.116339
vn 0.751532 -0.651266 -0.105127
vn 0.752024 -0.650701 -0.105113
vn 0.902210 -0.416640 -0.111481
vn 0.902962 -0.414973 -0.111612
vn 0.971849 -0.199892 -0.124707
vn 0.972061 -0.198832 -0.124754
vn 0.991309 0.000765 -0.131555
vn 0.991307 0.001076 -0.131563
vn 0.000000 0.011864 -0.999930
vn 0.000000 0.011864 -0.999930
vn 0.001483 0.011002 -0.999938
vn 0.005458 0.009376 -0.999941
vn 0.004285 0.008486 -0.999955
vn 0.000000 0.009383 -0.999956
vn 0.000396 0.009427 -0.999956
vn 0.000912 0.009608 -0.999953
vn 0.001560 0.010041 -0.999948
vn 0.002159 0.010814 -0.999939
vn 0.002413 0.011798 -0.999928
vn 0.002560 0.012018 -0.999925
vn 0.002270 0.012109 -0.999924
vn 0.003694 0.011644 -0.999925
vn 0.003044 0.011243 -0.999932
vn 0.000000 0.011864 -0.999930
vn -0.000000 0.011864 -0.999930
vn 0.000000 0.011864 -0.999930
vn 0.000000 0.011864 -0.999930
vn 0.000000 0.011864 -0.999930
vn 0.000000 0.011864 -0.999930
vn -0.000412 -0.011948 0.999928
vn -0.000350 -0.012024 0.999928
vn -0.000000 -0.012040 0.999928
vn -0.000255 -0.012084 0.999927
vn -0.000134 -0.012123 0.999927
vn 0.000000 -0.012136 0.999926
vn 0.000134 -0.012123 0.999927
vn 0.000255 -0.012084 0.999927
vn 0.000350 -0.012024 0.999928
vn 0.000412 -0.011948 0.999929
vn 0.000433 -0.011907 0.999929
vn 0.013677 -0.010504 0.999851
vn 0.013008 -0.009211 0.999873
vn 0.000000 -0.006308 0.999980
vn 0.011065 -0.006818 0.999915
vn 0.008040 -0.004919 0.999956
vn 0.004227 -0.003700 0.999984
vn 0.000000 -0.003280 0.999995
vn -0.004227 -0.003700 0.999984
vn -0.008040 -0.004919 0.999956
vn -0.011065 -0.006818 0.999915
vn -0.013008 -0.009211 0.999873
vn -0.013677 -0.010504 0.999851
vn -0.000433 -0.011907 0.999929
vn -0.024567 -0.020629 0.999485
vn -0.024567 -0.020629 0.999485
vn -0.024567 -0.020629 0.999485
vn -0.024567 -0.020629 0.999485
vn -0.022840 -0.027370 0.999364
vn -0.022840 -0.027370 0.999364
vn -0.022840 -0.027370 0.999364
vn -0.022840 -0.027370 0.999364
vn -0.016372 -0.033647 0.999300
vn -0.016372 -0.033647 0.999300
vn -0.016372 -0.033647 0.999300
vn -0.016372 -0.033647 0.999300
vn -0.006057 -0.037375 0.999283
vn -0.006057 -0.037375 0.999283
vn -0.006057 -0.037375 0.999283
vn -0.006057 -0.037375 0.999283
vn 0.006019 -0.037215 0.999289
vn 0.006019 -0.037215 0.999289
vn 0.006019 -0.037215 0.999289
vn 0.006019 -0.037215 0.999289
vn 0.016348 -0.033433 0.999307
vn 0.016348 -0.033433 0.999307
vn 0.016348 -0.033433 0.999307
vn 0.016348 -0.033433 0.999307
vn 0.022496 -0.027224 0.999376
vn 0.022496 -0.027224 0.999376
vn 0.022496 -0.027224 0.999376
vn 0.022496 -0.027224 0.999376
vn 0.023953 -0.020410 0.999505
vn 0.023953 -0.020410 0.999505
vn 0.023953 -0.020410 0.999505
vn 0.023953 -0.020410 0.999505
vn 0.023085 -0.014492 0.999628
vn 0.023085 -0.014492 0.999628
vn 0.023085 -0.014492 0.999628
vn 0.023085 -0.014492 0.999628
vn 0.017385 -0.009139 0.999807
vn 0.017385 -0.009139 0.999807
vn 0.017385 -0.009139 0.999807
vn 0.017385 -0.009139 0.999807
vn 0.011046 -0.009968 0.999889
vn 0.011046 -0.009968 0.999889
vn 0.011046 -0.009968 0.999889
vn 0.011046 -0.009968 0.999889
vn 0.010235 -0.007047 0.999923
vn 0.010235 -0.007047 0.999923
vn 0.010235 -0.007047 0.999923
vn 0.010235 -0.007047 0.999923
vn 0.016312 0.003636 0.999860
vn 0.016312 0.003636 0.999860
vn 0.016312 0.003636 0.999860
vn 0.016312 0.003636 0.999860
vn 0.003125 0.009331 0.999952
vn 0.003125 0.009331 0.999952
vn 0.003125 0.009331 0.999952
vn 0.003125 0.009331 0.999952
vn -0.003132 0.009359 0.999951
vn -0.003132 0.009359 0.999951
vn -0.003132 0.009359 0.999951
vn -0.003132 0.009359 0.999951
vn -0.016413 0.003748 0.999858
vn -0.016413 0.003748 0.999858
vn -0.016413 0.003748 0.999858
vn -0.016413 0.003748 0.999858
vn -0.010321 -0.007005 0.999922
vn -0.010321 -0.007005 0.999922
vn -0.010321 -0.007005 0.999922
vn -0.010321 -0.007005 0.999922
vn -0.011175 -0.009946 0.999888
vn -0.011175 -0.009946 0.999888
vn -0.011175 -0.009946 0.999888
vn -0.011175 -0.009946 0.999888
vn -0.017706 -0.009088 0.999802
vn -0.017706 -0.009088 0.999802
vn -0.017706 -0.009088 0.999802
vn -0.017706 -0.009088 0.999802
vn -0.023655 -0.014557 0.999614
vn -0.023655 -0.014557 0.999614
vn -0.023655 -0.014557 0.999614
vn -0.023655 -0.014557 0.999614
vn -0.604353 -0.201383 0.770845
vn -0.604353 -0.201383 0.770845
vn -0.604353 -0.201383 0.770845
vn -0.604353 -0.201383 0.770845
vn -0.492057 -0.316783 0.810881
vn -0.492057 -0.316783 0.810881
vn -0.492057 -0.316783 0.810881
vn -0.492057 -0.316783 0.810881
vn -0.324264 -0.407287 0.853797
vn -0.324264 -0.407287 0.853797
vn -0.324264 -0.407287 0.853797
vn -0.324264 -0.407287 0.853797
vn -0.113367 -0.457408 0.882001
vn -0.113367 -0.457408 0.882001
vn -0.113367 -0.457408 0.882001
vn -0.113367 -0.457408 0.882001
vn 0.113022 -0.456007 0.882771
vn 0.113022 -0.456007 0.882771
vn 0.113022 -0.456007 0.882771
vn 0.113022 -0.456007 0.882771
vn 0.321744 -0.404082 0.856270
vn 0.321744 -0.404082 0.856270
vn 0.321744 -0.404082 0.856270
vn 0.321744 -0.404082 0.856270
vn 0.487236 -0.313648 0.815000
vn 0.487236 -0.313648 0.815000
vn 0.487236 -0.313648 0.815000
vn 0.487237 -0.313648 0.815000
vn 0.598429 -0.199420 0.775960
vn 0.598429 -0.199420 0.775960
vn 0.598429 -0.199420 0.775960
vn 0.598429 -0.199420 0.775960
vn 0.654188 -0.073550 0.752747
vn 0.654188 -0.073550 0.752747
vn 0.654188 -0.073550 0.752747
vn 0.654188 -0.073550 0.752747
vn 0.680264 0.042655 0.731725
vn 0.680264 0.042655 0.731725
vn 0.680264 0.042655 0.731725
vn 0.680264 0.042655 0.731725
vn 0.662680 0.207715 0.719520
vn 0.662680 0.207715 0.719520
vn 0.662680 0.207715 0.719520
vn 0.662680 0.207715 0.719520
vn 0.580935 0.358490 0.730752
vn 0.580935 0.358490 0.730752
vn 0.580935 0.358490 0.730752
vn 0.580935 0.358490 0.730752
vn 0.421931 0.504246 0.753466
vn 0.421931 0.504246 0.753466
vn 0.421931 0.504246 0.753466
vn 0.421931 0.504246 0.753466
vn 0.150584 0.606413 0.780761
vn 0.150584 0.606413 0.780761
vn 0.150584 0.606413 0.780761
vn 0.150584 0.606413 0.780761
vn -0.150138 0.604590 0.782259
vn -0.150138 0.604590 0.782259
vn -0.150138 0.604590 0.782259
vn -0.150138 0.604590 0.782259
vn -0.419207 0.500460 0.757499
vn -0.419207 0.500460 0.757499
vn -0.419207 0.500460 0.757499
vn -0.419207 0.500460 0.757499
vn -0.577367 0.355743 0.734911
vn -0.577367 0.355743 0.734911
vn -0.577367 0.355743 0.734911
vn -0.577367 0.355743 0.734911
vn -0.661368 0.206717 0.721013
vn -0.661368 0.206717 0.721013
vn -0.661368 0.206717 0.721013
vn -0.661368 0.206717 0.721013
vn -0.683237 0.045169 0.728799
vn -0.683237 0.045169 0.728799
vn -0.683237 0.045169 0.728799
vn -0.683237 0.045169 0.728798
vn -0.660311 -0.074146 0.747323
vn -0.660311 -0.074146 0.747323
vn -0.660311 -0.074146 0.747323
vn -0.660311 -0.074146 0.747323
vn -0.473502 -0.029375 -0.880303
vn -0.473502 -0.029375 -0.880303
vn -0.473502 -0.029375 -0.880303
vn -0.473502 -0.029375 -0.880303
vn 0.000000 -0.167746 0.985830
vn 0.000000 -0.167746 0.985830
vn 0.000000 -0.167746 0.985830
vn 0.000000 -0.167746 0.985830
vn -0.014680 0.007169 -0.999867
vn -0.014680 0.007169 -0.999867
vn -0.014680 0.007169 -0.999867
vn -0.014680 0.007169 -0.999867
vn -0.018995 0.001501 -0.999819
vn -0.018995 0.001501 -0.999819
vn -0.018995 0.001501 -0.999819
vn -0.018995 0.001501 -0.999819
vn -0.041780 -0.029244 -0.998699
vn -0.041780 -0.029244 -0.998699
vn -0.041780 -0.029244 -0.998699
vn -0.041780 -0.029244 -0.998699
vn -0.010642 -0.041942 -0.999063
vn -0.010642 -0.041942 -0.999063
vn -0.010642 -0.041942 -0.999063
vn -0.010642 -0.041942 -0.999063
vn 0.010580 -0.041699 -0.999074
vn 0.010580 -0.041699 -0.999074
vn 0.010580 -0.041699 -0.999074
vn 0.010580 -0.041699 -0.999074
vn 0.040988 -0.028269 -0.998760
vn 0.040988 -0.028269 -0.998760
vn 0.040988 -0.028269 -0.998760
vn 0.040988 -0.028269 -0.998760
vn 0.018235 0.001978 -0.999832
vn 0.018235 0.001978 -0.999832
vn 0.018235 0.001978 -0.999832
vn 0.018235 0.001978 -0.999832
vn 0.013222 0.007635 -0.999883
vn 0.013222 0.007635 -0.999883
vn 0.013222 0.007635 -0.999883
vn 0.013222 0.007635 -0.999883
vn 0.258221 -0.011395 -0.966018
vn 0.258222 -0.011395 -0.966019
vn 0.258222 -0.011395 -0.966019
vn 0.258222 -0.011395 -0.966018
vn 0.000000 -0.167747 0.985830
vn 0.000000 -0.167747 0.985830
vn 0.000000 -0.167747 0.985830
vn 0.000000 -0.167747 0.985830
vn 0.000000 -1.000000 0.000090
vn 0.000000 -1.000000 0.000090
vn 0.000000 -1.000000 0.000090
vn 0.000000 -1.000000 0.000090
vn 0.007489 -0.054424 0.998490
vn 0.007489 -0.054424 0.998490
vn 0.007489 -0.054424 0.998490
vn 0.007489 -0.054424 0.998490
vn 0.000000 1.000000 -0.000006
vn 0.000000 1.000000 -0.000006
vn 0.000000 1.000000 -0.000006
vn 0.000000 1.000000 -0.000006
vn 0.000000 -1.000000 0.000088
vn 0.000000 -1.000000 0.000088
vn 0.000000 -0.000000 0.000000
vn 0.000000 -1.000000 0.000088
vn 0.000000 1.000000 -0.000006
vn 0.000000 1.000000 -0.000006
vn 0.000000 1.000000 -0.000006
vn 0.000000 0.000000 -0.000000
vn -0.007489 -0.054424 0.998490
vn -0.007489 -0.054424 0.998490
vn -0.007489 -0.054424 0.998490
vn -0.007489 -0.054424 0.998490
vn 0.001885 0.609784 0.792565
vn 0.001885 0.609784 0.792566
vn 0.001885 0.609784 0.792565
vn 0.001885 0.609784 0.792565
vn -0.999540 0.019693 -0.023061
vn -0.999540 0.019693 -0.023061
vn -0.999540 0.019693 -0.023061
vn -0.999540 0.019693 -0.023061
vn 0.003580 -0.551333 -0.834277
vn 0.003580 -0.551333 -0.834277
vn 0.003580 -0.551333 -0.834277
vn 0.003580 -0.551333 -0.834277
vn -0.001887 0.609820 0.792538
vn -0.001887 0.609820 0.792537
vn -0.001887 0.609820 0.792538
vn -0.001887 0.609820 0.792538
vn -0.003580 -0.551225 -0.834349
vn -0.003580 -0.551226 -0.834349
vn -0.003580 -0.551225 -0.834349
vn -0.003580 -0.551225 -0.834349
vn 0.999995 0.000843 0.002947
vn 0.999995 0.000843 0.002947
vn 0.999995 0.000843 0.002947
vn 0.999995 0.000843 0.002947
vn -0.014309 0.118907 0.992802
vn -0.014309 0.118907 0.992802
vn -0.014309 0.118907 0.992802
vn -0.014309 0.118907 0.992802
vn -0.994397 0.078040 -0.071313
vn -0.994397 0.078040 -0.071313
vn -0.994396 0.078040 -0.071313
vn -0.994396 0.078040 -0.071313
vn 0.011811 -0.048715 -0.998743
vn 0.011811 -0.048715 -0.998743
vn 0.011811 -0.048715 -0.998743
vn 0.011811 -0.048715 -0.998743
vn 0.014305 0.118263 0.992879
vn 0.014305 0.118263 0.992879
vn 0.014305 0.118263 0.992879
vn 0.014305 0.118263 0.992879
vn -0.011811 -0.048153 -0.998770
vn -0.011811 -0.048153 -0.998770
vn -0.011811 -0.048153 -0.998770
vn -0.011811 -0.048153 -0.998770
vn 0.998713 0.034514 -0.037153
vn 0.998713 0.034514 -0.037153
vn 0.998713 0.034514 -0.037153
vn 0.998713 0.034514 -0.037153
vn -0.013036 0.269337 0.962958
vn -0.013036 0.269337 0.962958
vn -0.013036 0.269337 0.962958
vn -0.013036 0.269337 0.962958
vn -0.999501 0.025536 -0.018574
vn -0.999501 0.025536 -0.018574
vn -0.999501 0.025536 -0.018574
vn -0.999501 0.025536 -0.018574
vn 0.009069 -0.288718 -0.957371
vn 0.009069 -0.288718 -0.957371
vn 0.009069 -0.288718 -0.957371
vn 0.009069 -0.288718 -0.957371
vn 0.013035 0.269070 0.963032
vn 0.013035 0.269070 0.963032
vn 0.013035 0.269070 0.963032
vn 0.013035 0.269070 0.963032
vn -0.009031 -0.288650 -0.957392
vn -0.009031 -0.288650 -0.957392
vn -0.009031 -0.288650 -0.957392
vn -0.009031 -0.288650 -0.957392
vn 0.999854 0.013286 -0.010755
vn 0.999854 0.013286 -0.010755
vn 0.999854 0.013286 -0.010755
vn 0.999854 0.013286 -0.010755
vn -0.003882 0.746688 0.665163
vn -0.003882 0.746688 0.665163
vn -0.003882 0.746688 0.665163
vn -0.003882 0.746688 0.665163
vn -0.999807 -0.014048 -0.013710
vn -0.999807 -0.014048 -0.013710
vn -0.999807 -0.014048 -0.013710
vn -0.999807 -0.014048 -0.013710
vn -0.019008 -0.814282 -0.580159
vn -0.019008 -0.814282 -0.580159
vn -0.019008 -0.814282 -0.580159
vn -0.019008 -0.814282 -0.580159
vn 0.003882 0.746688 0.665163
vn 0.003882 0.746688 0.665163
vn 0.003882 0.746688 0.665163
vn 0.003882 0.746688 0.665163
vn 0.018927 -0.814312 -0.580119
vn 0.018927 -0.814312 -0.580119
vn 0.018927 -0.814312 -0.580119
vn 0.018927 -0.814312 -0.580119
vn 0.999941 -0.008415 -0.006887
vn 0.999941 -0.008415 -0.006887
vn 0.999941 -0.008415 -0.006887
vn 0.999941 -0.008415 -0.006887
vn 0.000008 0.999997 -0.002328
vn 0.000008 0.999997 -0.002328
vn 0.000008 0.999997 -0.002328
vn 0.000008 0.999997 -0.002328
vn -0.999953 -0.007007 0.006685
vn -0.999953 -0.007007 0.006685
vn -0.999953 -0.007007 0.006685
vn -0.999953 -0.007007 0.006685
vn 0.000000 -0.999937 0.011212
vn 0.000000 -0.999937 0.011212
vn 0.000000 -0.999937 0.011212
vn 0.000000 -0.999937 0.011212
vn -0.000008 0.999997 -0.002328
vn -0.000008 0.999997 -0.002328
vn -0.000008 0.999997 -0.002328
vn -0.000008 0.999997 -0.002328
vn 0.000000 -0.999937 0.011212
vn 0.000000 -0.999937 0.011212
vn 0.000000 -0.999937 0.011212
vn 0.000000 -0.999937 0.011212
vn 0.999955 -0.006427 0.006972
vn 0.999955 -0.006427 0.006972
vn 0.999955 -0.006427 0.006972
vn 0.999955 -0.006427 0.006972
vn -0.014236 0.827181 0.561755
vn -0.014236 0.827181 0.561755
vn -0.014236 0.827181 0.561755
vn -0.014236 0.827181 0.561755
vn -0.999953 -0.007811 -0.005719
vn -0.999953 -0.007811 -0.005719
vn -0.999953 -0.007811 -0.005719
vn -0.999953 -0.007811 -0.005719
vn 0.000000 -0.999910 -0.013386
vn 0.000000 -0.999910 -0.013386
vn 0.000000 -0.999910 -0.013386
vn 0.000000 -0.999910 -0.013386
vn 0.014236 0.827181 0.561756
vn 0.014236 0.827181 0.561756
vn 0.014236 0.827181 0.561756
vn 0.014236 0.827181 0.561756
vn 0.000000 -0.999910 -0.013386
vn 0.000000 -0.999910 -0.013386
vn 0.000000 -0.999910 -0.013386
vn 0.000000 -0.999910 -0.013386
vn 0.999953 -0.007811 -0.005719
vn 0.999953 -0.007811 -0.005719
vn 0.999953 -0.007811 -0.005719
vn 0.999953 -0.007811 -0.005719
vn 0.007707 0.791343 -0.611324
vn 0.007707 0.791343 -0.611324
vn 0.007707 0.791343 -0.611324
vn 0.007707 0.791343 -0.611324
vn -0.999793 0.020272 -0.001742
vn -0.999793 0.020272 -0.001742
vn -0.999793 0.020272 -0.001742
vn -0.999793 0.020272 -0.001742
vn -0.009391 -0.628520 0.777737
vn -0.009391 -0.628520 0.777737
vn -0.009391 -0.628520 0.777737
vn -0.009391 -0.628520 0.777737
vn -0.007707 0.791343 -0.611324
vn -0.007707 0.791343 -0.611324
vn -0.007707 0.791343 -0.611324
vn -0.007707 0.791343 -0.611324
vn 0.009391 -0.628520 0.777737
vn 0.009391 -0.628520 0.777737
vn 0.009391 -0.628520 0.777737
vn 0.009391 -0.628520 0.777737
vn 0.999793 0.020272 -0.001742
vn 0.999793 0.020272 -0.001742
vn 0.999793 0.020272 -0.001742
vn 0.999793 0.020272 -0.001742
vn 0.025045 0.118212 -0.992673
vn 0.025045 0.118212 -0.992673
vn 0.025045 0.118212 -0.992673
vn 0.025045 0.118212 -0.992673
vn -0.998771 0.045711 0.019178
vn -0.998771 0.045711 0.019178
vn -0.998771 0.045711 0.019178
vn -0.998771 0.045711 0.019178
vn -0.023403 -0.079432 0.996566
vn -0.023403 -0.079432 0.996566
vn -0.023403 -0.079432 0.996566
vn -0.023403 -0.079432 0.996566
vn -0.025045 0.118213 -0.992672
vn -0.025045 0.118213 -0.992672
vn -0.025045 0.118213 -0.992672
vn -0.025045 0.118213 -0.992672
vn 0.023403 -0.079432 0.996566
vn 0.023403 -0.079432 0.996566
vn 0.023403 -0.079432 0.996566
vn 0.023403 -0.079432 0.996566
vn 0.998771 0.045712 0.019178
vn 0.998771 0.045712 0.019178
vn 0.998771 0.045712 0.019178
vn 0.998771 0.045712 0.019178
vn -0.998642 0.048234 0.019693
vn -0.998642 0.048234 0.019693
vn -0.998642 0.048234 0.019693
vn -0.998642 0.048234 0.019693
vn -0.025947 0.254632 0.966690
vn -0.025947 0.254632 0.966690
vn -0.025947 0.254632 0.966690
vn -0.025947 0.254632 0.966690
vn 0.025947 0.254636 0.966689
vn 0.025947 0.254636 0.966689
vn 0.025947 0.254636 0.966689
vn 0.025947 0.254636 0.966689
vn 0.998642 0.048234 0.019693
vn 0.998642 0.048234 0.019693
vn 0.998642 0.048234 0.019693
vn 0.998642 0.048234 0.019693
vn 0.019607 -0.757037 -0.653078
vn 0.019607 -0.757037 -0.653078
vn 0.019607 -0.757037 -0.653078
vn 0.019607 -0.757037 -0.653078
vn -0.998750 0.048366 0.012585
vn -0.998750 0.048366 0.012585
vn -0.998750 0.048366 0.012585
vn -0.998750 0.048366 0.012585
vn -0.013216 0.884613 0.466139
vn -0.013216 0.884613 0.466139
vn -0.013216 0.884613 0.466139
vn -0.013216 0.884613 0.466139
vn -0.019607 -0.757037 -0.653078
vn -0.019607 -0.757037 -0.653078
vn -0.019607 -0.757037 -0.653078
vn -0.019607 -0.757037 -0.653078
vn 0.013216 0.884613 0.466139
vn 0.013216 0.884613 0.466139
vn 0.013216 0.884613 0.466139
vn 0.013216 0.884613 0.466139
vn 0.998750 0.048365 0.012585
vn 0.998750 0.048365 0.012585
vn 0.998750 0.048365 0.012585
vn 0.998750 0.048365 0.012585
vn 0.000000 0.220409 -0.975408
vn 0.000000 0.220409 -0.975408
vn 0.000000 0.220409 -0.975408
vn 0.000000 0.220409 -0.975408
vn 0.000000 0.220409 -0.975408
vn 0.000000 0.220409 -0.975408
vn 0.000157 -1.000000 -0.000403
vn 0.000157 -1.000000 -0.000403
vn 0.000157 -1.000000 -0.000403
vn 0.000157 -1.000000 -0.000403
vn -0.999005 0.044600 0.000242
vn -0.999005 0.044600 0.000242
vn -0.999005 0.044600 0.000242
vn -0.999005 0.044600 0.000242
vn -0.001605 0.999998 -0.000812
vn -0.001605 0.999998 -0.000812
vn -0.001605 0.999998 -0.000812
vn -0.001605 0.999998 -0.000812
vn 0.001605 0.999998 -0.000812
vn 0.001605 0.999998 -0.000812
vn 0.001605 0.999998 -0.000812
vn 0.001605 0.999998 -0.000812
vn 0.999005 0.044601 0.000242
vn 0.999005 0.044601 0.000242
vn 0.999005 0.044601 0.000242
vn 0.999005 0.044601 0.000242
vn -0.000157 -1.000000 -0.000403
vn -0.000157 -1.000000 -0.000403
vn -0.000157 -1.000000 -0.000403
vn -0.000157 -1.000000 -0.000403
vn -0.001634 0.999385 0.035028
vn -0.001634 0.999385 0.035028
vn -0.001634 0.999385 0.035028
vn -0.001634 0.999385 0.035028
vn -0.000838 0.999654 -0.026291
vn -0.000838 0.999654 -0.026291
vn -0.000838 0.999654 -0.026291
vn -0.000838 0.999654 -0.026291
vn -0.040799 0.999166 0.001638
vn -0.040799 0.999166 0.001638
vn -0.040799 0.999166 0.001638
vn -0.040799 0.999166 0.001638
vn 0.001634 0.999385 0.035028
vn 0.001634 0.999385 0.035028
vn 0.001634 0.999385 0.035028
vn 0.001634 0.999385 0.035028
vn 0.040799 0.999166 0.001638
vn 0.040799 0.999166 0.001638
vn 0.040799 0.999166 0.001638
vn 0.040799 0.999166 0.001638
vn 0.000838 0.999654 -0.026291
vn 0.000838 0.999654 -0.026291
vn 0.000838 0.999654 -0.026291
vn 0.000838 0.999654 -0.026291
vn -0.022393 -0.071591 0.997183
vn -0.022393 -0.071591 0.997183
vn -0.022393 -0.071591 0.997183
vn -0.022393 -0.071591 0.997183
vn 0.021275 0.142802 -0.989523
vn 0.021275 0.142802 -0.989523
vn 0.021275 0.142802 -0.989523
vn 0.021275 0.142802 -0.989523
vn -0.999723 0.023543 0.000252
vn -0.999723 0.023543 0.000252
vn -0.999723 0.023543 0.000252
vn -0.999723 0.023543 0.000252
vn 0.022393 -0.071587 0.997183
vn 0.022393 -0.071587 0.997183
vn 0.022393 -0.071587 0.997183
vn 0.022393 -0.071587 0.997183
vn 0.999723 0.023543 0.000252
vn 0.999723 0.023543 0.000252
vn 0.999723 0.023543 0.000252
vn 0.999723 0.023543 0.000252
vn -0.021275 0.142796 -0.989523
vn -0.021275 0.142796 -0.989523
vn -0.021275 0.142796 -0.989523
vn -0.021275 0.142796 -0.989523
vn -0.003021 -0.717357 0.696700
vn -0.003021 -0.717357 0.696699
vn -0.003021 -0.717357 0.696700
vn -0.003021 -0.717357 0.696699
vn 0.007060 -0.627381 -0.778680
vn 0.007060 -0.627381 -0.778680
vn 0.007060 -0.627381 -0.778680
vn 0.007060 -0.627381 -0.778680
vn -0.675155 -0.737650 -0.006196
vn -0.675155 -0.737650 -0.006196
vn -0.675155 -0.737650 -0.006196
vn -0.675155 -0.737650 -0.006196
vn 0.003021 -0.717356 0.696700
vn 0.003021 -0.717356 0.696700
vn 0.003021 -0.717356 0.696700
vn 0.003021 -0.717356 0.696700
vn 0.675154 -0.737650 -0.006196
vn 0.675154 -0.737650 -0.006196
vn 0.675154 -0.737651 -0.006196
vn 0.675154 -0.737651 -0.006196
vn -0.007060 -0.627381 -0.778680
vn -0.007060 -0.627381 -0.778680
vn -0.007060 -0.627381 -0.778680
vn -0.007060 -0.627381 -0.778680
vn 0.000205 -0.700608 0.713546
vn 0.000205 -0.700608 0.713546
vn 0.000205 -0.700608 0.713546
vn 0.000205 -0.700608 0.713546
vn 0.004659 -0.720789 -0.693139
vn 0.004659 -0.720789 -0.693139
vn 0.004659 -0.720789 -0.693139
vn 0.004659 -0.720789 -0.693139
vn -0.704266 -0.709888 -0.008310
vn -0.704266 -0.709888 -0.008310
vn -0.704266 -0.709888 -0.008310
vn -0.704266 -0.709888 -0.008310
vn -0.000205 -0.700603 0.713551
vn -0.000205 -0.700603 0.713551
vn -0.000205 -0.700603 0.713551
vn -0.000205 -0.700603 0.713551
vn 0.704265 -0.709889 -0.008310
vn 0.704265 -0.709888 -0.008310
vn 0.704265 -0.709889 -0.008310
vn 0.704265 -0.709888 -0.008310
vn -0.004659 -0.720786 -0.693142
vn -0.004659 -0.720786 -0.693142
vn -0.004659 -0.720786 -0.693142
vn -0.004659 -0.720786 -0.693142
vn 0.002807 -0.995448 -0.095262
vn 0.002807 -0.995448 -0.095262
vn 0.002807 -0.995448 -0.095262
vn 0.002807 -0.995448 -0.095262
vn -0.001520 0.998767 -0.049617
vn -0.001520 0.998767 -0.049617
vn -0.001520 0.998767 -0.049617
vn -0.001520 0.998767 -0.049617
vn 0.006322 -0.999661 -0.025243
vn 0.006322 -0.999661 -0.025243
vn 0.006322 -0.999661 -0.025243
vn 0.006322 -0.999661 -0.025243
vn -0.007314 0.991264 0.131692
vn -0.007314 0.991264 0.131692
vn -0.007314 0.991264 0.131692
vn -0.007314 0.991264 0.131692
vn 0.043874 -0.998943 -0.013706
vn 0.043874 -0.998943 -0.013706
vn 0.043874 -0.998943 -0.013706
vn 0.043874 -0.998943 -0.013706
vn 0.084133 0.996359 0.013829
vn 0.084133 0.996359 0.013829
vn 0.084133 0.996359 0.013829
vn 0.084133 0.996359 0.013829
vn -0.002807 -0.995448 -0.095261
vn -0.002807 -0.995448 -0.095261
vn -0.002807 -0.995448 -0.095261
vn -0.002807 -0.995448 -0.095261
vn 0.001520 0.998767 -0.049617
vn 0.001520 0.998767 -0.049617
vn 0.001520 0.998767 -0.049617
vn 0.001520 0.998767 -0.049617
vn -0.043876 -0.998943 -0.013706
vn -0.043876 -0.998943 -0.013706
vn -0.043876 -0.998943 -0.013706
vn -0.043876 -0.998943 -0.013706
vn -0.084133 0.996359 0.013829
vn -0.084133 0.996359 0.013829
vn -0.084133 0.996359 0.013829
vn -0.084133 0.996359 0.013829
vn -0.006322 -0.999661 -0.025243
vn -0.006322 -0.999661 -0.025243
vn -0.006322 -0.999661 -0.025243
vn -0.006322 -0.999661 -0.025243
vn 0.007314 0.991264 0.131693
vn 0.007314 0.991264 0.131693
vn 0.007314 0.991264 0.131693
vn 0.007314 0.991264 0.131693
vn 0.000000 0.735250 0.677796
vn 0.000000 0.735250 0.677796
vn 0.000000 0.735250 0.677796
vn 0.000000 0.735250 0.677796
vn -0.128924 0.616629 0.776625
vn -0.128924 0.616629 0.776625
vn -0.128924 0.616629 0.776625
vn -0.128924 0.616629 0.776625
vn -0.002536 0.641313 0.767276
vn -0.002536 0.641313 0.767276
vn -0.002536 0.641313 0.767276
vn -0.002536 0.641313 0.767276
vn 0.000000 0.735250 0.677796
vn 0.000000 0.735250 0.677796
vn 0.000000 0.735250 0.677796
vn 0.000000 0.735250 0.677796
vn 0.002537 0.641220 0.767353
vn 0.002537 0.641220 0.767353
vn 0.002537 0.641220 0.767353
vn 0.002537 0.641220 0.767353
vn 0.136394 0.613488 0.777836
vn 0.136394 0.613488 0.777836
vn 0.136394 0.613488 0.777836
vn 0.136394 0.613488 0.777836
vn 0.000000 0.021240 -0.999774
vn 0.000000 0.021240 -0.999774
vn 0.000000 0.021240 -0.999774
vn 0.000000 0.021240 -0.999774
vn -0.923326 -0.042553 0.381651
vn -0.923326 -0.042553 0.381651
vn -0.923326 -0.042553 0.381651
vn -0.923326 -0.042553 0.381651
vn 0.000231 -0.033896 0.999425
vn 0.000231 -0.033896 0.999425
vn 0.000231 -0.033896 0.999425
vn 0.000231 -0.033896 0.999425
vn 0.000000 0.021240 -0.999774
vn 0.000000 0.021240 -0.999774
vn 0.000000 0.021240 -0.999774
vn 0.000000 0.021240 -0.999774
vn -0.000231 -0.033905 0.999425
vn -0.000231 -0.033905 0.999425
vn -0.000231 -0.033905 0.999425
vn -0.000231 -0.033905 0.999425
vn 0.913162 -0.007036 0.407536
vn 0.913162 -0.007036 0.407536
vn 0.913162 -0.007036 0.407536
vn 0.913162 -0.007036 0.407536
vn -0.017350 0.558501 -0.829322
vn -0.017350 0.558501 -0.829322
vn -0.017350 0.558501 -0.829322
vn -0.017350 0.558501 -0.829322
vn -0.943155 -0.177529 0.280966
vn -0.943155 -0.177529 0.280966
vn -0.943155 -0.177529 0.280966
vn -0.943155 -0.177529 0.280966
vn 0.011839 -0.530774 0.847431
vn 0.011839 -0.530774 0.847431
vn 0.011839 -0.530774 0.847431
vn 0.011839 -0.530774 0.847431
vn 0.017242 0.558399 -0.829393
vn 0.017242 0.558399 -0.829393
vn 0.017242 0.558399 -0.829393
vn 0.017242 0.558399 -0.829393
vn -0.011779 -0.530751 0.847446
vn -0.011779 -0.530751 0.847446
vn -0.011779 -0.530751 0.847446
vn -0.011779 -0.530751 0.847446
vn 0.941223 -0.184867 0.282708
vn 0.941223 -0.184867 0.282708
vn 0.941223 -0.184867 0.282708
vn 0.941223 -0.184867 0.282708
vn -0.067438 0.993061 -0.096341
vn -0.067438 0.993061 -0.096341
vn -0.067438 0.993061 -0.096341
vn -0.067438 0.993061 -0.096341
vn -0.954126 -0.297059 -0.037401
vn -0.954126 -0.297059 -0.037401
vn -0.954126 -0.297059 -0.037401
vn -0.954126 -0.297059 -0.037401
vn 0.041346 -0.958284 -0.282812
vn 0.041346 -0.958284 -0.282812
vn 0.041346 -0.958284 -0.282812
vn 0.041346 -0.958284 -0.282812
vn 0.066891 0.993174 -0.095559
vn 0.066891 0.993174 -0.095559
vn 0.066891 0.993174 -0.095559
vn 0.066891 0.993174 -0.095559
vn -0.041142 -0.958175 -0.283209
vn -0.041142 -0.958175 -0.283209
vn -0.041142 -0.958175 -0.283209
vn -0.041142 -0.958175 -0.283209
vn 0.950922 -0.308260 -0.026895
vn 0.950922 -0.308260 -0.026895
vn 0.950922 -0.308260 -0.026895
vn 0.950922 -0.308260 -0.026895
vn -0.019887 0.624640 0.780660
vn -0.019887 0.624639 0.780660
vn -0.019887 0.624639 0.780660
vn -0.019887 0.624639 0.780660
vn -0.877981 -0.381123 -0.289645
vn -0.877981 -0.381123 -0.289645
vn -0.877981 -0.381123 -0.289645
vn -0.877981 -0.381123 -0.289645
vn 0.000000 -0.996894 0.078753
vn 0.000000 -0.996894 0.078753
vn 0.000000 -0.996894 0.078753
vn 0.000000 -0.996894 0.078753
vn 0.019834 0.624516 0.780760
vn 0.019834 0.624516 0.780760
vn 0.019834 0.624516 0.780760
vn 0.019834 0.624516 0.780760
vn 0.000000 -0.996894 0.078753
vn 0.000000 -0.996894 0.078753
vn 0.000000 -0.996894 0.078753
vn 0.000000 -0.996894 0.078753
vn 0.877455 -0.385237 -0.285770
vn 0.877455 -0.385237 -0.285771
vn 0.877455 -0.385237 -0.285770
vn 0.877455 -0.385237 -0.285770
vn 0.000000 0.000005 -1.000000
vn 0.000000 0.000005 -1.000000
vn 0.000000 0.000005 -1.000000
vn 0.000000 0.000005 -1.000000
vn 0.000000 -0.000004 1.000000
vn 0.000000 -0.000004 1.000000
vn 0.000000 -0.000004 1.000000
vn 0.000000 -0.000004 1.000000
vn -1.000000 0.000000 -0.000000
vn -1.000000 0.000000 -0.000000
vn -1.000000 0.000000 -0.000000
vn -1.000000 0.000000 -0.000000
vn 0.000000 0.000005 -1.000000
vn 0.000000 0.000005 -1.000000
vn 0.000000 0.000005 -1.000000
vn 0.000000 0.000005 -1.000000
vn 1.000000 -0.000000 0.000000
vn 1.000000 -0.000000 0.000000
vn 1.000000 -0.000000 0.000000
vn 1.000000 -0.000000 0.000000
vn 0.000000 -0.000004 1.000000
vn 0.000000 -0.000004 1.000000
vn 0.000000 -0.000004 1.000000
vn 0.000000 -0.000004 1.000000
vn 0.000000 0.766623 -0.642097
vn 0.000000 0.766623 -0.642097
vn 0.000000 0.766623 -0.642097
vn 0.000000 0.766623 -0.642097
vn 0.000000 -0.718606 0.695418
vn 0.000000 -0.718606 0.695418
vn 0.000000 -0.718606 0.695417
vn 0.000000 -0.718606 0.695417
vn -0.998082 0.014020 -0.060291
vn -0.998082 0.014020 -0.060291
vn -0.998082 0.014020 -0.060291
vn -0.998082 0.014020 -0.060291
vn 0.000000 0.766623 -0.642097
vn 0.000000 0.766623 -0.642097
vn 0.000000 0.766623 -0.642097
vn 0.000000 0.766623 -0.642097
vn 0.998166 0.020098 -0.057108
vn 0.998166 0.020098 -0.057108
vn 0.998166 0.020098 -0.057108
vn 0.998166 0.020098 -0.057108
vn 0.000000 -0.718606 0.695418
vn 0.000000 -0.718606 0.695418
vn 0.000000 -0.718606 0.695418
vn 0.000000 -0.718606 0.695418
vn 0.000000 0.934909 -0.354889
vn 0.000000 0.934909 -0.354889
vn 0.000000 0.934909 -0.354889
vn 0.000000 0.934909 -0.354889
vn 0.000000 -0.881381 0.472407
vn 0.000000 -0.881381 0.472407
vn 0.000000 -0.881381 0.472407
vn 0.000000 -0.881381 0.472407
vn -0.965619 0.239409 -0.101310
vn -0.965619 0.239409 -0.101310
vn -0.965619 0.239409 -0.101310
vn -0.965619 0.239409 -0.101310
vn 0.000000 0.934909 -0.354889
vn 0.000000 0.934909 -0.354889
vn 0.000000 0.934909 -0.354889
vn 0.000000 0.934909 -0.354889
vn 0.953705 0.284260 -0.098206
vn 0.953704 0.284260 -0.098206
vn 0.953705 0.284260 -0.098206
vn 0.953704 0.284260 -0.098206
vn 0.000000 -0.881381 0.472407
vn 0.000000 -0.881381 0.472407
vn 0.000000 -0.881381 0.472407
vn 0.000000 -0.881381 0.472407
vn 0.000000 0.794376 0.607426
vn 0.000000 0.794376 0.607426
vn 0.000000 0.794376 0.607426
vn 0.000000 0.794376 0.607426
vn 0.000000 -0.792371 -0.610039
vn 0.000000 -0.792371 -0.610039
vn 0.000000 -0.792371 -0.610039
vn 0.000000 -0.792371 -0.610039
vn -0.972237 0.207896 0.107400
vn -0.972237 0.207896 0.107400
vn -0.972237 0.207896 0.107400
vn -0.972237 0.207896 0.107400
vn 0.000000 0.794376 0.607426
vn 0.000000 0.794376 0.607426
vn 0.000000 0.794376 0.607426
vn 0.000000 0.794376 0.607426
vn 0.963558 0.237195 0.123671
vn 0.963558 0.237195 0.123671
vn 0.963558 0.237195 0.123671
vn 0.963558 0.237195 0.123671
vn 0.000000 -0.792371 -0.610039
vn 0.000000 -0.792371 -0.610039
vn 0.000000 -0.792371 -0.610039
vn 0.000000 -0.792371 -0.610039
vn 0.000000 -0.222598 0.974910
vn 0.000000 -0.222598 0.974910
vn 0.000000 -0.222598 0.974910
vn 0.000000 -0.222598 0.974910
vn 0.000000 0.036670 -0.999327
vn 0.000000 0.036670 -0.999327
vn 0.000000 0.036670 -0.999327
vn 0.000000 0.036670 -0.999327
vn -0.936862 -0.013132 0.349453
vn -0.936862 -0.013132 0.349453
vn -0.936862 -0.013132 0.349453
vn -0.936862 -0.013132 0.349453
vn 0.000000 -0.222598 0.974910
vn 0.000000 -0.222598 0.974910
vn 0.000000 -0.222598 0.974910
vn 0.000000 -0.222598 0.974910
vn 0.934581 -0.002127 0.355744
vn 0.934581 -0.002127 0.355744
vn 0.934581 -0.002127 0.355744
vn 0.934581 -0.002127 0.355744
vn 0.000000 0.036670 -0.999327
vn 0.000000 0.036670 -0.999327
vn 0.000000 0.036670 -0.999327
vn 0.000000 0.036670 -0.999327
vn 0.000000 -0.807097 0.590419
vn 0.000000 -0.807097 0.590419
vn 0.000000 -0.807097 0.590419
vn 0.000000 -0.807097 0.590419
vn 0.000000 0.769091 -0.639139
vn 0.000000 0.769091 -0.639139
vn 0.000000 0.769091 -0.639139
vn 0.000000 0.769091 -0.639139
vn -0.540250 -0.677555 0.499047
vn -0.540250 -0.677555 0.499047
vn -0.540250 -0.677555 0.499047
vn -0.540250 -0.677555 0.499047
vn 0.000000 -0.807097 0.590419
vn 0.000000 -0.807097 0.590419
vn 0.000000 -0.807097 0.590419
vn 0.000000 -0.807097 0.590419
vn 0.543061 -0.674854 0.499657
vn 0.543061 -0.674854 0.499657
vn 0.543061 -0.674854 0.499657
vn 0.543061 -0.674854 0.499657
vn 0.000000 0.769091 -0.639139
vn 0.000000 0.769091 -0.639139
vn 0.000000 0.769091 -0.639139
vn 0.000000 0.769091 -0.639139
vn -0.000002 0.999998 0.001765
vn -0.000002 0.999998 0.001765
vn -0.000002 0.999998 0.001765
vn -0.000002 0.999998 0.001765
vn -0.999955 -0.006112 -0.007201
vn -0.999955 -0.006112 -0.007201
vn -0.999955 -0.006112 -0.007201
vn -0.999955 -0.006112 -0.007201
vn -0.000003 -0.999765 -0.021693
vn -0.000003 -0.999765 -0.021693
vn -0.000003 -0.999765 -0.021693
vn -0.000003 -0.999765 -0.021693
vn 0.000002 0.999998 0.001765
vn 0.000002 0.999998 0.001765
vn 0.000002 0.999998 0.001765
vn 0.000002 0.999998 0.001765
vn 0.000003 -0.999765 -0.021693
vn 0.000003 -0.999765 -0.021693
vn 0.000003 -0.999765 -0.021693
vn 0.000003 -0.999765 -0.021693
vn 0.999955 -0.006112 -0.007201
vn 0.999955 -0.006112 -0.007201
vn 0.999955 -0.006112 -0.007201
vn 0.999955 -0.006112 -0.007201
vn 0.000000 0.548730 0.836000
vn 0.000000 0.548730 0.836000
vn 0.000000 0.548730 0.836000
vn 0.000000 0.548730 0.836000
vn -0.999957 -0.005996 -0.007080
vn -0.999957 -0.005996 -0.007080
vn -0.999957 -0.005996 -0.007080
vn -0.999957 -0.005996 -0.007080
vn 0.000000 -0.550892 -0.834577
vn 0.000000 -0.550892 -0.834577
vn 0.000000 -0.550892 -0.834577
vn 0.000000 -0.550892 -0.834577
vn 0.000000 0.548730 0.836000
vn 0.000000 0.548730 0.836000
vn 0.000000 0.548730 0.836000
vn 0.000000 0.548730 0.836000
vn 0.000000 -0.550892 -0.834577
vn 0.000000 -0.550892 -0.834577
vn 0.000000 -0.550892 -0.834577
vn 0.000000 -0.550892 -0.834577
vn 0.999957 -0.005996 -0.007080
vn 0.999957 -0.005996 -0.007080
vn 0.999957 -0.005996 -0.007080
vn 0.999957 -0.005996 -0.007080
vn 0.000000 0.172588 0.984994
vn 0.000000 0.172588 0.984994
vn 0.000000 0.172588 0.984994
vn 0.000000 0.172588 0.984994
vn -0.999844 -0.017454 0.002644
vn -0.999844 -0.017454 0.002644
vn -0.999844 -0.017454 0.002644
vn -0.999844 -0.017454 0.002644
vn 0.000000 -0.579655 -0.814862
vn 0.000000 -0.579655 -0.814862
vn 0.000000 -0.579655 -0.814862
vn 0.000000 -0.579655 -0.814862
vn 0.000000 0.172588 0.984994
vn 0.000000 0.172588 0.984994
vn 0.000000 0.172588 0.984994
vn 0.000000 0.172588 0.984994
vn 0.000000 -0.579652 -0.814865
vn 0.000000 -0.579652 -0.814865
vn 0.000000 -0.579652 -0.814864
vn 0.000000 -0.579652 -0.814865
vn 0.999844 -0.017454 0.002645
vn 0.999844 -0.017454 0.002645
vn 0.999844 -0.017454 0.002645
vn 0.999844 -0.017454 0.002645
vn 0.000000 0.787732 -0.616019
vn 0.000000 0.787732 -0.616019
vn 0.000000 0.787732 -0.616019
vn 0.000000 0.787732 -0.616019
vn 0.000000 -0.846409 0.532533
vn 0.000000 -0.846409 0.532533
vn 0.000000 -0.846409 0.532533
vn 0.000000 -0.846409 0.532533
vn -0.999431 -0.033259 -0.005668
vn -0.999431 -0.033259 -0.005668
vn -0.999431 -0.033259 -0.005668
vn -0.999431 -0.033259 -0.005668
vn 0.000000 0.787732 -0.616019
vn 0.000000 0.787732 -0.616019
vn 0.000000 0.787732 -0.616019
vn 0.000000 0.787732 -0.616019
vn 0.999431 -0.033259 -0.005668
vn 0.999431 -0.033259 -0.005668
vn 0.999431 -0.033259 -0.005668
vn 0.999431 -0.033259 -0.005668
vn 0.000000 -0.846409 0.532533
vn 0.000000 -0.846409 0.532533
vn 0.000000 -0.846409 0.532533
vn 0.000000 -0.846409 0.532533
vn 0.000000 0.991149 0.132750
vn 0.000000 0.991149 0.132750
vn 0.000000 0.991149 0.132750
vn 0.000000 0.991149 0.132750
vn 0.000000 -0.992292 -0.123923
vn 0.000000 -0.992292 -0.123923
vn 0.000000 -0.992292 -0.123923
vn 0.000000 -0.992292 -0.123923
vn -0.999061 -0.037620 -0.021478
vn -0.999061 -0.037620 -0.021478
vn -0.999061 -0.037620 -0.021478
vn -0.999061 -0.037620 -0.021478
vn 0.000000 0.991149 0.132750
vn 0.000000 0.991149 0.132750
vn 0.000000 0.991149 0.132750
vn 0.000000 0.991149 0.132750
vn 0.999061 -0.037620 -0.021478
vn 0.999061 -0.037620 -0.021478
vn 0.999061 -0.037620 -0.021478
vn 0.999061 -0.037620 -0.021478
vn 0.000000 -0.992292 -0.123923
vn 0.000000 -0.992292 -0.123923
vn 0.000000 -0.992292 -0.123923
vn 0.000000 -0.992292 -0.123923
vn 0.000000 0.828930 0.559353
vn 0.000000 0.828930 0.559353
vn 0.000000 0.828930 0.559353
vn 0.000000 0.828930 0.559353
vn 0.000000 -0.742827 -0.669484
vn 0.000000 -0.742827 -0.669484
vn 0.000000 -0.742827 -0.669484
vn 0.000000 -0.742827 -0.669484
vn -0.998845 -0.044150 -0.018984
vn -0.998845 -0.044150 -0.018984
vn -0.998845 -0.044150 -0.018984
vn -0.998845 -0.044150 -0.018984
vn 0.000000 0.828930 0.559353
vn 0.000000 0.828930 0.559352
vn 0.000000 0.828930 0.559352
vn 0.000000 0.828930 0.559353
vn 0.998845 -0.044150 -0.018984
vn 0.998845 -0.044150 -0.018984
vn 0.998845 -0.044150 -0.018984
vn 0.998845 -0.044150 -0.018984
vn 0.000000 -0.742827 -0.669483
vn 0.000000 -0.742827 -0.669484
vn 0.000000 -0.742827 -0.669484
vn 0.000000 -0.742827 -0.669483
vn 0.000000 0.801560 0.597915
vn 0.000000 0.801560 0.597915
vn 0.000000 0.801560 0.597915
vn 0.000000 0.801560 0.597915
vn 0.000000 -0.664381 -0.747394
vn 0.000000 -0.664381 -0.747394
vn 0.000000 -0.664381 -0.747394
vn 0.000000 -0.664381 -0.747394
vn -0.645361 -0.401684 -0.649738
vn -0.645361 -0.401684 -0.649738
vn -0.645361 -0.401684 -0.649738
vn -0.645361 -0.401684 -0.649738
vn 0.000000 0.801560 0.597915
vn 0.000000 0.801560 0.597915
vn 0.000000 0.801560 0.597915
vn 0.000000 0.801560 0.597915
vn 0.645361 -0.401684 -0.649738
vn 0.645361 -0.401684 -0.649738
vn 0.645361 -0.401684 -0.649738
vn 0.645361 -0.401684 -0.649738
vn 0.000000 -0.664381 -0.747394
vn 0.000000 -0.664381 -0.747394
vn 0.000000 -0.664381 -0.747394
vn 0.000000 -0.664381 -0.747394
vn 0.000050 -0.587240 0.809413
vn 0.000050 -0.587240 0.809413
vn 0.000050 -0.587240 0.809413
vn 0.000050 -0.587240 0.809413
vn -0.006669 -0.601520 -0.798830
vn -0.006669 -0.601520 -0.798829
vn -0.006669 -0.601520 -0.798830
vn -0.006669 -0.601520 -0.798829
vn -0.804609 -0.593803 -0.001683
vn -0.804609 -0.593803 -0.001683
vn -0.804609 -0.593803 -0.001683
vn -0.804609 -0.593803 -0.001683
vn -0.000050 -0.587240 0.809413
vn -0.000050 -0.587240 0.809413
vn -0.000050 -0.587240 0.809413
vn -0.000050 -0.587240 0.809413
vn 0.804609 -0.593803 -0.001683
vn 0.804609 -0.593803 -0.001683
vn 0.804609 -0.593803 -0.001683
vn 0.804609 -0.593803 -0.001683
vn 0.006669 -0.601521 -0.798829
vn 0.006669 -0.601521 -0.798829
vn 0.006669 -0.601521 -0.798829
vn 0.006669 -0.601521 -0.798829
vn 0.000000 -0.263582 0.964637
vn 0.000000 -0.263582 0.964637
vn 0.000000 -0.263582 0.964637
vn 0.000000 -0.263582 0.964637
vn -0.005253 -0.260266 -0.965523
vn -0.005253 -0.260266 -0.965523
vn -0.005253 -0.260266 -0.965523
vn -0.005253 -0.260266 -0.965523
vn -0.963904 -0.266250 0.000000
vn -0.963904 -0.266250 0.000000
vn -0.963904 -0.266250 0.000000
vn -0.963904 -0.266250 0.000000
vn 0.000000 -0.263582 0.964637
vn 0.000000 -0.263582 0.964637
vn 0.000000 -0.263582 0.964637
vn 0.000000 -0.263582 0.964637
vn 0.963904 -0.266250 0.000000
vn 0.963904 -0.266250 0.000000
vn 0.963904 -0.266250 0.000000
vn 0.963904 -0.266250 0.000000
vn 0.005253 -0.260266 -0.965523
vn 0.005253 -0.260266 -0.965523
vn 0.005253 -0.260266 -0.965523
vn 0.005253 -0.260266 -0.965523
vn 0.000000 -0.326872 0.945069
vn 0.000000 -0.326872 0.945069
vn 0.000000 -0.326872 0.945069
vn 0.000000 -0.326872 0.945068
vn 0.010390 -0.345780 -0.938258
vn 0.010390 -0.345780 -0.938258
vn 0.010390 -0.345780 -0.938258
vn 0.010390 -0.345780 -0.938258
vn -0.946900 -0.321520 -0.002173
vn -0.946900 -0.321520 -0.002173
vn -0.946900 -0.321520 -0.002173
vn -0.946900 -0.321520 -0.002173
vn 0.000000 -0.326873 0.945068
vn 0.000000 -0.326873 0.945068
vn 0.000000 -0.326873 0.945068
vn 0.000000 -0.326873 0.945068
vn 0.945890 -0.324483 -0.001418
vn 0.945890 -0.324483 -0.001418
vn 0.945890 -0.324483 -0.001418
vn 0.945890 -0.324483 -0.001418
vn -0.010374 -0.345750 -0.938269
vn -0.010374 -0.345750 -0.938269
vn -0.010374 -0.345750 -0.938269
vn -0.010374 -0.345750 -0.938269
vn 0.000000 0.000008 1.000000
vn 0.000000 0.000008 1.000000
vn 0.000000 0.000008 1.000000
vn 0.000000 0.000008 1.000000
vn 0.027386 -0.028762 -0.999211
vn 0.027386 -0.028762 -0.999211
vn 0.027386 -0.028762 -0.999211
vn 0.027386 -0.028762 -0.999211
vn -0.999381 0.031704 -0.015259
vn -0.999381 0.031704 -0.015259
vn -0.999381 0.031704 -0.015259
vn -0.999381 0.031704 -0.015259
vn 0.000000 0.000010 1.000000
vn 0.000000 0.000010 1.000000
vn 0.000000 0.000010 1.000000
vn 0.000000 0.000010 1.000000
vn 0.999593 0.025710 -0.012374
vn 0.999593 0.025710 -0.012374
vn 0.999593 0.025710 -0.012374
vn 0.999593 0.025710 -0.012374
vn -0.027224 -0.028591 -0.999220
vn -0.027224 -0.028591 -0.999220
vn -0.027224 -0.028591 -0.999220
vn -0.027224 -0.028591 -0.999220
vn 0.000000 -0.997809 -0.066164
vn 0.000000 -0.997809 -0.066164
vn 0.000000 -0.997809 -0.066164
vn 0.000000 -0.997809 -0.066164
vn 0.020811 -0.987321 0.157367
vn 0.020811 -0.987321 0.157367
vn 0.020811 -0.987321 0.157367
vn 0.020811 -0.987321 0.157367
vn 0.194589 -0.980792 0.013524
vn 0.194589 -0.980792 0.013524
vn 0.194589 -0.980792 0.013524
vn 0.194589 -0.980792 0.013524
vn 0.000000 -0.997809 -0.066164
vn 0.000000 -0.997809 -0.066164
vn 0.000000 -0.997809 -0.066164
vn 0.000000 -0.997809 -0.066164
vn -0.190789 -0.981543 0.013125
vn -0.190789 -0.981543 0.013125
vn -0.190789 -0.981543 0.013125
vn -0.190789 -0.981543 0.013125
vn -0.020737 -0.987374 0.157041
vn -0.020737 -0.987374 0.157041
vn -0.020737 -0.987374 0.157041
vn -0.020737 -0.987374 0.157041
vn 0.000000 1.000000 0.000000
vn 0.000000 1.000000 0.000000
vn 0.000000 1.000000 0.000000
vn 0.000000 1.000000 0.000000
vn -0.024194 0.994484 -0.102058
vn -0.024194 0.994484 -0.102058
vn -0.024194 0.994484 -0.102058
vn -0.024194 0.994484 -0.102058
vn -0.129885 0.991430 -0.014050
vn -0.129885 0.991430 -0.014050
vn -0.129885 0.991430 -0.014050
vn -0.129885 0.991430 -0.014050
vn 0.000000 1.000000 0.000000
vn 0.000000 1.000000 0.000000
vn 0.000000 1.000000 0.000000
vn 0.000000 1.000000 0.000000
vn 0.127436 0.991751 -0.013785
vn 0.127436 0.991751 -0.013785
vn 0.127436 0.991751 -0.013785
vn 0.127436 0.991751 -0.013785
vn 0.024107 0.994524 -0.101693
vn 0.024107 0.994524 -0.101693
vn 0.024107 0.994524 -0.101693
vn 0.024107 0.994524 -0.101693
vn 0.000000 -0.000000 -1.000000
vn 0.000000 -0.000000 -1.000000
vn 0.000000 -0.000000 -1.000000
vn 0.000000 -0.000000 -1.000000
vn -0.003714 0.008250 0.999959
vn -0.003714 0.008250 0.999959
vn -0.003714 0.008250 0.999959
vn -0.003714 0.008250 0.999959
vn 0.999974 -0.006981 0.001588
vn 0.999974 -0.006981 0.001588
vn 0.999974 -0.006981 0.001588
vn 0.999974 -0.006981 0.001588
vn 0.000000 -0.000000 -1.000000
vn 0.000000 -0.000000 -1.000000
vn 0.000000 -0.000000 -1.000000
vn 0.000000 -0.000000 -1.000000
vn -0.999984 -0.005441 0.001238
vn -0.999984 -0.005441 0.001238
vn -0.999984 -0.005441 0.001238
vn -0.999984 -0.005441 0.001238
vn 0.003711 0.008245 0.999959
vn 0.003711 0.008245 0.999959
vn 0.003711 0.008245 0.999959
vn 0.003711 0.008245 0.999959
vn -0.009603 -0.961121 0.275960
vn -0.009603 -0.961121 0.275960
vn -0.009603 -0.961121 0.275960
vn -0.009603 -0.961121 0.275960
vn -1.000000 -0.000182 0.000052
vn -1.000000 -0.000182 0.000052
vn -1.000000 -0.000182 0.000052
vn -1.000000 -0.000182 0.000052
vn 0.009610 0.961121 -0.275961
vn 0.009610 0.961121 -0.275961
vn 0.009610 0.961121 -0.275961
vn 0.009610 0.961121 -0.275961
vn 0.009603 -0.961121 0.275960
vn 0.009603 -0.961121 0.275960
vn 0.009603 -0.961121 0.275960
vn 0.009603 -0.961121 0.275960
vn -0.009610 0.961121 -0.275960
vn -0.009610 0.961121 -0.275961
vn -0.009610 0.961121 -0.275961
vn -0.009610 0.961121 -0.275961
vn 1.000000 -0.000182 0.000052
vn 1.000000 -0.000182 0.000052
vn 1.000000 -0.000182 0.000052
vn 1.000000 -0.000182 0.000052
vn -0.030565 -0.477287 0.878216
vn -0.030565 -0.477287 0.878216
vn -0.030565 -0.477287 0.878216
vn -0.030565 -0.477287 0.878216
vn -0.936439 -0.350831 -0.000104
vn -0.936439 -0.350831 -0.000104
vn -0.936439 -0.350831 -0.000104
vn -0.936439 -0.350831 -0.000104
vn 0.030725 -0.468201 -0.883087
vn 0.030725 -0.468201 -0.883087
vn 0.030725 -0.468201 -0.883087
vn 0.030725 -0.468201 -0.883088
vn 0.030565 -0.477286 0.878216
vn 0.030565 -0.477286 0.878216
vn 0.030565 -0.477286 0.878216
vn 0.030565 -0.477286 0.878216
vn -0.030725 -0.468201 -0.883087
vn -0.030725 -0.468201 -0.883087
vn -0.030725 -0.468201 -0.883087
vn -0.030725 -0.468201 -0.883087
vn 0.936439 -0.350831 -0.000104
vn 0.936439 -0.350831 -0.000104
vn 0.936439 -0.350831 -0.000104
vn 0.936439 -0.350831 -0.000104
vn -0.025655 0.673725 0.738536
vn -0.025655 0.673725 0.738536
vn -0.025655 0.673725 0.738536
vn -0.025655 0.673725 0.738536
vn -0.985771 -0.168095 -0.000019
vn -0.985771 -0.168095 -0.000019
vn -0.985771 -0.168095 -0.000019
vn -0.985771 -0.168095 -0.000019
vn 0.020218 -0.813686 -0.580953
vn 0.020218 -0.813686 -0.580953
vn 0.020218 -0.813686 -0.580953
vn 0.020218 -0.813686 -0.580953
vn 0.025655 0.673725 0.738536
vn 0.025655 0.673725 0.738536
vn 0.025655 0.673725 0.738536
vn 0.025655 0.673725 0.738536
vn -0.020218 -0.813686 -0.580953
vn -0.020218 -0.813686 -0.580953
vn -0.020218 -0.813686 -0.580953
vn -0.020218 -0.813686 -0.580953
vn 0.985771 -0.168095 -0.000019
vn 0.985771 -0.168095 -0.000019
vn 0.985771 -0.168095 -0.000019
vn 0.985771 -0.168095 -0.000019
s 1
g pCylinder1
usemtl initialShadingGroup
f 1/21/1 2/22/2 22/43/3 21/42/4
f 2/22/2 3/23/5 23/44/6 22/43/3
f 3/23/5 4/24/7 24/45/8 23/44/6
f 4/24/7 5/25/9 25/46/10 24/45/8
f 5/25/9 6/26/11 26/47/12 25/46/10
f 6/26/11 7/27/13 27/48/14 26/47/12
f 7/27/13 8/28/15 28/49/16 27/48/14
f 8/28/15 9/29/17 29/50/18 28/49/16
f 9/29/17 10/30/19 30/51/20 29/50/18
f 10/30/19 11/31/21 31/52/22 30/51/20
f 11/31/21 12/32/23 32/53/24 31/52/22
f 12/32/23 13/33/25 33/54/26 32/53/24
f 13/33/25 14/34/27 34/55/28 33/54/26
f 14/34/27 15/35/29 35/56/30 34/55/28
f 15/35/29 16/36/31 36/57/32 35/56/30
f 16/36/31 17/37/33 37/58/34 36/57/32
f 17/37/33 18/38/35 38/59/36 37/58/34
f 18/38/35 19/39/37 39/60/38 38/59/36
f 19/39/37 20/40/39 40/61/40 39/60/38
f 20/40/39 1/41/1 21/62/4 40/61/40
s 2
f 2/2/41 1/1/42 41/83/43
f 3/3/44 2/2/41 41/83/43
f 4/4/45 3/3/44 41/83/43
f 5/5/46 4/4/45 41/83/43
f 6/6/47 5/5/46 41/83/43
f 7/7/48 6/6/47 41/83/43
f 8/8/49 7/7/48 41/83/43
f 9/9/50 8/8/49 41/83/43
f 10/10/51 9/9/50 41/83/43
f 11/11/52 10/10/51 41/83/43
f 12/12/53 11/11/52 41/83/43
f 13/13/54 12/12/53 41/83/43
f 14/14/55 13/13/54 41/83/43
f 15/15/56 14/14/55 41/83/43
f 16/16/57 15/15/56 41/83/43
f 17/17/58 16/16/57 41/83/43
f 18/18/59 17/17/58 41/83/43
f 19/19/60 18/18/59 41/83/43
f 20/20/61 19/19/60 41/83/43
f 1/1/42 20/20/61 41/83/43
s 3
f 62/105/62 63/106/63 64/84/64
f 63/106/63 65/107/65 64/84/64
f 65/107/65 66/108/66 64/84/64
f 66/108/66 67/109/67 64/84/64
f 67/109/67 68/110/68 64/84/64
f 68/110/68 69/111/69 64/84/64
f 69/111/69 70/112/70 64/84/64
f 70/112/70 71/113/71 64/84/64
f 71/113/71 72/114/72 64/84/64
s 4
f 83/125/73 84/126/74 85/127/75
f 84/126/74 86/128/76 85/127/75
f 86/128/76 87/129/77 85/127/75
f 87/129/77 88/130/78 85/127/75
f 88/130/78 89/131/79 85/127/75
f 89/131/79 90/132/80 85/127/75
f 90/132/80 91/133/81 85/127/75
f 91/133/81 92/134/82 85/127/75
f 92/134/82 93/135/83 85/127/75
f 93/135/83 94/136/84 85/127/75
s 3
f 82/124/85 62/105/62 64/84/64
s off
f 21/81/86 22/80/87 43/86/88 42/85/89
f 22/80/90 23/79/91 44/87/92 43/86/93
f 23/79/94 24/78/95 45/88/96 44/87/97
f 24/78/98 25/77/99 46/89/100 45/88/101
f 25/77/102 26/76/103 47/90/104 46/89/105
f 26/76/106 27/75/107 48/91/108 47/90/109
f 27/75/110 28/74/111 49/92/112 48/91/113
f 28/74/114 29/73/115 50/93/116 49/92/117
f 29/73/118 30/72/119 51/94/120 50/93/121
f 30/72/122 31/71/123 52/95/124 51/94/125
f 31/71/126 32/70/127 53/96/128 52/95/129
f 32/70/130 33/69/131 54/97/132 53/96/133
f 33/69/134 34/68/135 55/98/136 54/97/137
f 34/68/138 35/67/139 56/99/140 55/98/141
f 35/67/142 36/66/143 57/100/144 56/99/145
f 36/66/146 37/65/147 58/101/148 57/100/149
f 37/65/150 38/64/151 59/102/152 58/101/153
f 38/64/154 39/63/155 60/103/156 59/102/157
f 39/63/158 40/82/159 61/104/160 60/103/161
f 40/82/162 21/81/163 42/85/164 61/104/165
f 42/85/166 43/86/167 63/106/168 62/105/169
f 43/86/170 44/87/171 65/107/172 63/106/173
f 44/87/174 45/88/175 66/108/176 65/107/177
f 45/88/178 46/89/179 67/109/180 66/108/181
f 46/89/182 47/90/183 68/110/184 67/109/185
f 47/90/186 48/91/187 69/111/188 68/110/189
f 48/91/190 49/92/191 70/112/192 69/111/193
f 49/92/194 50/93/195 71/113/196 70/112/197
f 50/93/198 51/94/199 72/114/200 71/113/201
f 51/94/202 52/95/203 73/115/204 72/114/205
f 52/95/206 53/96/207 74/116/208 73/115/209
f 53/96/210 54/97/211 75/117/212 74/116/213
f 54/97/214 55/98/215 76/118/216 75/117/217
f 55/98/218 56/99/219 77/119/220 76/118/221
f 56/99/222 57/100/223 78/120/224 77/119/225
f 57/100/226 58/101/227 79/121/228 78/120/229
f 58/101/230 59/102/231 80/122/232 79/121/233
f 59/102/234 60/103/235 81/123/236 80/122/237
f 60/103/238 61/104/239 82/124/240 81/123/241
f 61/104/242 42/85/243 62/105/244 82/124/245
f 72/114/246 73/115/247 84/126/248 83/125/249
f 282/323/250 281/324/251 283/325/252 284/326/253
f 73/115/254 74/116/255 86/128/256 84/126/257
f 74/116/258 75/117/259 87/129/260 86/128/261
f 75/117/262 76/118/263 88/130/264 87/129/265
f 76/118/266 77/119/267 89/131/268 88/130/269
f 77/119/270 78/120/271 90/132/272 89/131/273
f 78/120/274 79/121/275 91/133/276 90/132/277
f 79/121/278 80/122/279 92/134/280 91/133/281
f 80/122/282 81/123/283 93/135/284 92/134/285
f 81/123/286 82/124/287 94/136/288 93/135/289
f 285/327/290 282/323/291 284/326/292 286/328/293
f 64/84/294 72/114/295 95/138/296 96/137/297
f 72/114/298 83/125/299 97/139/300 95/138/301
f 83/125/302 85/127/303 98/140/304 97/139/305
f 82/124/306 64/84/307 96/137/308 99/141/309
f 85/127/310 94/136/311 100/142/312 98/140/313
f 94/136/314 82/124/315 99/141/316 100/142/317
f 204/245/318 203/246/319 205/247/320 206/248/321
f 95/138/322 97/139/323 103/145/324 101/144/325
f 97/139/326 98/140/327 104/146/328 103/145/329
f 207/249/330 204/245/331 206/248/332 208/250/333
f 98/140/334 100/142/335 106/148/336 104/146/337
f 100/142/338 99/141/339 105/147/340 106/148/341
f 102/143/342 101/144/343 107/150/344 108/149/345
f 101/144/346 103/145/347 109/151/348 107/150/349
f 103/145/350 104/146/351 110/152/352 109/151/353
f 105/147/354 102/143/355 108/149/356 111/153/357
f 104/146/358 106/148/359 112/154/360 110/152/361
f 106/148/362 105/147/363 111/153/364 112/154/365
f 108/149/366 107/150/367 113/156/368 114/155/369
f 107/150/370 109/151/371 115/157/372 113/156/373
f 109/151/374 110/152/375 116/158/376 115/157/377
f 111/153/378 108/149/379 114/155/380 117/159/381
f 110/152/382 112/154/383 118/160/384 116/158/385
f 112/154/386 111/153/387 117/159/388 118/160/389
f 114/155/390 113/156/391 119/162/392 120/161/393
f 113/156/394 115/157/395 121/163/396 119/162/397
f 115/157/398 116/158/399 122/164/400 121/163/401
f 117/159/402 114/155/403 120/161/404 123/165/405
f 116/158/406 118/160/407 124/166/408 122/164/409
f 118/160/410 117/159/411 123/165/412 124/166/413
f 120/161/414 119/162/415 125/168/416 126/167/417
f 119/162/418 121/163/419 127/169/420 125/168/421
f 121/163/422 122/164/423 128/170/424 127/169/425
f 123/165/426 120/161/427 126/167/428 129/171/429
f 122/164/430 124/166/431 130/172/432 128/170/433
f 124/166/434 123/165/435 129/171/436 130/172/437
f 150/191/438 149/192/439 151/193/440 152/194/441
f 125/168/442 127/169/443 133/175/444 131/174/445
f 127/169/446 128/170/447 134/176/448 133/175/449
f 153/195/450 150/191/451 152/194/452 154/196/453
f 128/170/454 130/172/455 136/178/456 134/176/457
f 130/172/458 129/171/459 135/177/460 136/178/461
f 126/167/462 125/168/463 137/180/464 138/179/465
f 125/168/466 131/174/467 139/181/468 137/180/469
f 131/174/470 132/173/471 140/182/472 139/181/473
f 129/171/474 126/167/475 138/179/476 141/183/477
f 132/173/478 135/177/479 142/184/480 140/182/481
f 135/177/482 129/171/483 141/183/484 142/184/485
f 138/179/486 137/180/487 143/186/488 144/185/489
f 137/180/490 139/181/491 145/187/492 143/186/493
f 139/181/494 140/182/495 146/188/496 145/187/497
f 141/183/498 138/179/499 144/185/500 147/189/501
f 140/182/502 142/184/503 148/190/504 146/188/505
f 142/184/506 141/183/507 147/189/508 148/190/509
f 143/186/510 145/187/511 151/193/512 149/192/513
f 145/187/514 146/188/515 152/194/516 151/193/517
f 146/188/518 148/190/519 154/196/520 152/194/521
f 148/190/522 147/189/523 153/195/524 154/196/525
f 144/185/526 143/186/527 155/198/528 156/197/529
f 143/186/530 149/192/531 157/199/532 155/198/533
f 149/192/534 150/191/535 158/200/536 157/199/537
f 147/189/538 144/185/539 156/197/540 159/201/541
f 150/191/542 153/195/543 160/202/544 158/200/545
f 153/195/546 147/189/547 159/201/548 160/202/549
f 162/203/550 161/204/551 163/205/552 164/206/553 165/207/554 166/208/555
f 366/407/556 365/408/557 367/409/558 368/410/559
f 155/198/560 157/199/561 163/205/562 161/204/563
f 347/389/564 348/390/565 349/391/566 350/392/567
f 348/390/568 351/393/569 352/394/570 349/391/571
f 160/202/572 159/201/573 166/208/574 165/207/575
f 369/411/576 366/407/577 368/410/578 370/412/579
f 157/199/580 158/200/581 168/210/582 167/209/583
f 164/206/584 163/205/585 170/212/586 169/211/587
f 163/205/588 157/199/589 167/209/590 170/212/591
f 158/200/592 160/202/593 171/213/594 168/210/595
f 160/202/596 165/207/597 172/214/598 171/213/599
f 165/207/600 164/206/601 169/211/602 172/214/603
f 167/209/604 168/210/605 174/216/606 173/215/607
f 169/211/608 170/212/609 176/218/610 175/217/611
f 170/212/612 167/209/613 173/215/614 176/218/615
f 168/210/616 171/213/617 177/219/618 174/216/619
f 171/213/620 172/214/621 178/220/622 177/219/623
f 172/214/624 169/211/625 175/217/626 178/220/627
f 173/215/628 174/216/629 180/222/630 179/221/631
f 175/217/632 176/218/633 182/224/634 181/223/635
f 176/218/636 173/215/637 179/221/638 182/224/639
f 174/216/640 177/219/641 183/225/642 180/222/643
f 177/219/644 178/220/645 184/226/646 183/225/647
f 178/220/648 175/217/649 181/223/650 184/226/651
f 191/233/652 192/234/653 193/235/654 194/236/655
f 196/237/656 195/238/657 197/239/658 198/240/659
f 195/238/660 191/233/661 194/236/662 197/239/663
f 192/234/664 199/241/665 200/242/666 193/235/667
f 199/241/668 201/243/669 202/244/670 200/242/671
f 201/243/672 196/237/673 198/240/674 202/244/675
f 179/221/676 180/222/677 192/234/678 191/233/679
f 186/228/680 185/227/681 194/236/682 193/235/683
f 181/223/684 182/224/685 195/238/686 196/237/687
f 188/230/688 187/229/689 198/240/690 197/239/691
f 182/224/692 179/221/693 191/233/694 195/238/695
f 185/227/696 188/230/697 197/239/698 194/236/699
f 180/222/700 183/225/701 199/241/702 192/234/703
f 189/231/704 186/228/705 193/235/706 200/242/707
f 183/225/708 184/226/709 201/243/710 199/241/711
f 190/232/712 189/231/713 200/242/714 202/244/715
f 184/226/716 181/223/717 196/237/718 201/243/719
f 187/229/720 190/232/721 202/244/722 198/240/723
f 228/269/724 227/270/725 229/271/726 230/272/727
f 95/138/728 101/144/729 205/247/730 203/246/731
f 101/144/732 102/143/733 206/248/734 205/247/735
f 231/273/736 228/269/737 230/272/738 232/274/739
f 102/143/740 105/147/741 208/250/742 206/248/743
f 105/147/744 99/141/745 207/249/746 208/250/747
f 96/137/748 95/138/749 209/252/750 210/251/751
f 95/138/752 203/246/753 211/253/754 209/252/755
f 203/246/756 204/245/757 212/254/758 211/253/759
f 99/141/760 96/137/761 210/251/762 213/255/763
f 204/245/764 207/249/765 214/256/766 212/254/767
f 207/249/768 99/141/769 213/255/770 214/256/771
f 210/251/772 209/252/773 215/258/774 216/257/775
f 209/252/776 211/253/777 217/259/778 215/258/779
f 211/253/780 212/254/781 218/260/782 217/259/783
f 213/255/784 210/251/785 216/257/786 219/261/787
f 212/254/788 214/256/789 220/262/790 218/260/791
f 214/256/792 213/255/793 219/261/794 220/262/795
f 216/257/796 215/258/797 221/264/798 222/263/799
f 215/258/800 217/259/801 223/265/802 221/264/803
f 217/259/804 218/260/805 224/266/806 223/265/807
f 219/261/808 216/257/809 222/263/810 225/267/811
f 218/260/812 220/262/813 226/268/814 224/266/815
f 220/262/816 219/261/817 225/267/818 226/268/819
f 222/263/820 221/264/821 227/270/822 228/269/823
f 221/264/824 223/265/825 229/271/826 227/270/827
f 245/287/828 246/288/829 247/289/830 248/290/831
f 225/267/832 222/263/833 228/269/834 231/273/835
f 246/288/836 249/291/837 250/292/838 247/289/839
f 226/268/840 225/267/841 231/273/842 232/274/843
f 223/265/844 224/266/845 234/276/846 233/275/847
f 230/272/848 229/271/849 236/278/850 235/277/851
f 229/271/852 223/265/853 233/275/854 236/278/855
f 224/266/856 226/268/857 237/279/858 234/276/859
f 226/268/860 232/274/861 238/280/862 237/279/863
f 232/274/864 230/272/865 235/277/866 238/280/867
f 233/275/868 234/276/869 240/282/870 239/281/871
f 235/277/872 236/278/873 242/284/874 241/283/875
f 236/278/876 233/275/877 239/281/878 242/284/879
f 234/276/880 237/279/881 243/285/882 240/282/883
f 237/279/884 238/280/885 244/286/886 243/285/887
f 238/280/888 235/277/889 241/283/890 244/286/891
f 263/305/892 264/306/893 265/307/894 266/308/895
f 241/283/896 242/284/897 248/290/898 247/289/899
f 242/284/900 239/281/901 245/287/902 248/290/903
f 264/306/904 267/309/905 268/310/906 265/307/907
f 243/285/908 244/286/909 250/292/910 249/291/911
f 244/286/912 241/283/913 247/289/914 250/292/915
f 239/281/916 240/282/917 252/294/918 251/293/919
f 246/288/920 245/287/921 254/296/922 253/295/923
f 245/287/924 239/281/925 251/293/926 254/296/927
f 240/282/928 243/285/929 255/297/930 252/294/931
f 243/285/932 249/291/933 256/298/934 255/297/935
f 249/291/936 246/288/937 253/295/938 256/298/939
f 251/293/940 252/294/941 258/300/942 257/299/943
f 253/295/944 254/296/945 260/302/946 259/301/947
f 254/296/948 251/293/949 257/299/950 260/302/951
f 252/294/952 255/297/953 261/303/954 258/300/955
f 255/297/956 256/298/957 262/304/958 261/303/959
f 256/298/960 253/295/961 259/301/962 262/304/963
f 257/299/964 258/300/965 264/306/966 263/305/967
f 259/301/968 260/302/969 266/308/970 265/307/971
f 260/302/972 257/299/973 263/305/974 266/308/975
f 258/300/976 261/303/977 267/309/978 264/306/979
f 261/303/980 262/304/981 268/310/982 267/309/983
f 262/304/984 259/301/985 265/307/986 268/310/987
f 132/173/988 131/174/989 269/312/990 270/311/991
f 131/174/992 133/175/993 271/313/994 269/312/995
f 133/175/996 134/176/997 272/314/998 271/313/999
f 135/177/1000 132/173/1001 270/311/1002 273/315/1003
f 134/176/1004 136/178/1005 274/316/1006 272/314/1007
f 136/178/1008 135/177/1009 273/315/1010 274/316/1011
f 270/311/1012 269/312/1013 275/318/1014 276/317/1015
f 269/312/1016 271/313/1017 277/319/1018 275/318/1019
f 271/313/1020 272/314/1021 278/320/1022 277/319/1023
f 273/315/1024 270/311/1025 276/317/1026 279/321/1027
f 272/314/1028 274/316/1029 280/322/1030 278/320/1031
f 274/316/1032 273/315/1033 279/321/1034 280/322/1035
f 276/317/1036 275/318/1037 281/324/1038 282/323/1039
f 275/318/1040 277/319/1041 283/325/1042 281/324/1043
f 305/347/1044 306/348/1045 307/349/1046 308/350/1047
f 279/321/1048 276/317/1049 282/323/1050 285/327/1051
f 306/348/1052 309/351/1053 310/352/1054 307/349/1055
f 280/322/1056 279/321/1057 285/327/1058 286/328/1059
f 277/319/1060 278/320/1061 288/330/1062 287/329/1063
f 284/326/1064 283/325/1065 290/332/1066 289/331/1067
f 283/325/1068 277/319/1069 287/329/1070 290/332/1071
f 278/320/1072 280/322/1073 291/333/1074 288/330/1075
f 280/322/1076 286/328/1077 292/334/1078 291/333/1079
f 286/328/1080 284/326/1081 289/331/1082 292/334/1083
f 287/329/1084 288/330/1085 294/336/1086 293/335/1087
f 289/331/1088 290/332/1089 296/338/1090 295/337/1091
f 290/332/1092 287/329/1093 293/335/1094 296/338/1095
f 288/330/1096 291/333/1097 297/339/1098 294/336/1099
f 291/333/1100 292/334/1101 298/340/1102 297/339/1103
f 292/334/1104 289/331/1105 295/337/1106 298/340/1107
f 293/335/1108 294/336/1109 300/342/1110 299/341/1111
f 295/337/1112 296/338/1113 302/344/1114 301/343/1115
f 296/338/1116 293/335/1117 299/341/1118 302/344/1119
f 294/336/1120 297/339/1121 303/345/1122 300/342/1123
f 297/339/1124 298/340/1125 304/346/1126 303/345/1127
f 298/340/1128 295/337/1129 301/343/1130 304/346/1131
f 299/341/1132 300/342/1133 306/348/1134 305/347/1135
f 301/343/1136 302/344/1137 308/350/1138 307/349/1139
f 302/344/1140 299/341/1141 305/347/1142 308/350/1143
f 300/342/1144 303/345/1145 309/351/1146 306/348/1147
f 303/345/1148 304/346/1149 310/352/1150 309/351/1151
f 304/346/1152 301/343/1153 307/349/1154 310/352/1155
f 185/227/1156 186/228/1157 312/354/1158 311/353/1159
f 187/229/1160 188/230/1161 314/356/1162 313/355/1163
f 188/230/1164 185/227/1165 311/353/1166 314/356/1167
f 186/228/1168 189/231/1169 315/357/1170 312/354/1171
f 189/231/1172 190/232/1173 316/358/1174 315/357/1175
f 190/232/1176 187/229/1177 313/355/1178 316/358/1179
f 311/353/1180 312/354/1181 318/360/1182 317/359/1183
f 313/355/1184 314/356/1185 320/362/1186 319/361/1187
f 314/356/1188 311/353/1189 317/359/1190 320/362/1191
f 312/354/1192 315/357/1193 321/363/1194 318/360/1195
f 315/357/1196 316/358/1197 322/364/1198 321/363/1199
f 316/358/1200 313/355/1201 319/361/1202 322/364/1203
f 317/359/1204 318/360/1205 324/366/1206 323/365/1207
f 319/361/1208 320/362/1209 326/368/1210 325/367/1211
f 320/362/1212 317/359/1213 323/365/1214 326/368/1215
f 318/360/1216 321/363/1217 327/369/1218 324/366/1219
f 321/363/1220 322/364/1221 328/370/1222 327/369/1223
f 322/364/1224 319/361/1225 325/367/1226 328/370/1227
f 335/377/1228 336/378/1229 330/372/1230 329/371/1231
f 338/379/1232 337/380/1233 332/374/1234 331/373/1235
f 337/380/1236 335/377/1237 329/371/1238 332/374/1239
f 336/378/1240 339/381/1241 333/375/1242 330/372/1243
f 339/381/1244 340/382/1245 334/376/1246 333/375/1247
f 340/382/1248 338/379/1249 331/373/1250 334/376/1251
f 323/365/1252 324/366/1253 336/378/1254 335/377/1255
f 325/367/1256 326/368/1257 337/380/1258 338/379/1259
f 326/368/1260 323/365/1261 335/377/1262 337/380/1263
f 324/366/1264 327/369/1265 339/381/1266 336/378/1267
f 327/369/1268 328/370/1269 340/382/1270 339/381/1271
f 328/370/1272 325/367/1273 338/379/1274 340/382/1275
f 329/371/1276 330/372/1277 342/384/1278 341/383/1279
f 331/373/1280 332/374/1281 344/386/1282 343/385/1283
f 332/374/1284 329/371/1285 341/383/1286 344/386/1287
f 330/372/1288 333/375/1289 345/387/1290 342/384/1291
f 333/375/1292 334/376/1293 346/388/1294 345/387/1295
f 334/376/1296 331/373/1297 343/385/1298 346/388/1299
f 341/383/1300 342/384/1301 348/390/1302 347/389/1303
f 343/385/1304 344/386/1305 350/392/1306 349/391/1307
f 344/386/1308 341/383/1309 347/389/1310 350/392/1311
f 342/384/1312 345/387/1313 351/393/1314 348/390/1315
f 345/387/1316 346/388/1317 352/394/1318 351/393/1319
f 346/388/1320 343/385/1321 349/391/1322 352/394/1323
f 156/197/1324 155/198/1325 353/396/1326 354/395/1327
f 155/198/1328 161/204/1329 355/397/1330 353/396/1331
f 161/204/1332 162/203/1333 356/398/1334 355/397/1335
f 159/201/1336 156/197/1337 354/395/1338 357/399/1339
f 162/203/1340 166/208/1341 358/400/1342 356/398/1343
f 166/208/1344 159/201/1345 357/399/1346 358/400/1347
f 354/395/1348 353/396/1349 359/402/1350 360/401/1351
f 353/396/1352 355/397/1353 361/403/1354 359/402/1355
f 355/397/1356 356/398/1357 362/404/1358 361/403/1359
f 357/399/1360 354/395/1361 360/401/1362 363/405/1363
f 356/398/1364 358/400/1365 364/406/1366 362/404/1367
f 358/400/1368 357/399/1369 363/405/1370 364/406/1371
f 360/401/1372 359/402/1373 365/408/1374 366/407/1375
f 359/402/1376 361/403/1377 367/409/1378 365/408/1379
f 361/403/1380 362/404/1381 368/410/1382 367/409/1383
f 363/405/1384 360/401/1385 366/407/1386 369/411/1387
f 362/404/1388 364/406/1389 370/412/1390 368/410/1391
f 364/406/1392 363/405/1393 369/411/1394 370/412/1395
